<svg width="858" height="196" viewBox="0 0 858 196" fill="none" xmlns="http://www.w3.org/2000/svg">
<path d="M29.2537 114.754C29.2537 114.77 29.2538 114.785 29.254 114.801C30.2361 116.626 87.7377 170.754 111.294 170.754C134.849 170.754 192.268 116.632 193.253 114.801C193.254 114.785 193.254 114.77 193.254 114.754C193.271 114.754 193.27 114.77 193.253 114.801C193.102 126.934 135.222 195.254 111.294 195.254C87.3596 195.254 29.3796 129.365 29.254 114.801C29.2371 114.77 29.2369 114.754 29.2537 114.754Z" fill="white"/>
<path d="M18.2054 18.459C-6.06845 42.7329 -6.06845 82.0885 18.2054 106.362C21.5118 109.669 25.098 112.525 28.8878 114.93C11.3093 90.6324 7.32706 54.0432 31.3481 32.6017C40.9482 24.0325 50.2732 18.688 63.1405 18.5228C72.1319 18.4074 77.1064 21.1303 85.2579 24.9267C94.3072 29.1411 106.254 39.5073 106.254 39.5073C106.92 40.0406 108.44 41.036 110.434 42.3419C115.917 45.9335 124.987 51.8738 129.754 57.0074C136.254 64.0074 149.754 59.0073 143.754 48.5074C140.007 41.9511 126.734 30.5438 113.254 21.0075C105.592 15.5872 97.2937 10.5363 92.1249 7.93659C68.5086 -5.06982 38.2267 -1.56234 18.2054 18.459Z" fill="white"/>
<path d="M204.302 18.2054C228.576 42.4792 228.576 81.8349 204.302 106.109C200.996 109.415 197.41 112.271 193.62 114.677C211.199 90.3787 215.181 53.7895 191.16 32.3481C181.56 23.7788 172.235 18.4344 159.367 18.2692C150.376 18.1537 145.401 20.8767 137.25 24.673C128.201 28.8875 116.254 39.2537 116.254 39.2537C115.588 39.7869 114.068 40.7823 112.074 42.0882C106.59 45.6799 97.521 51.6202 92.7541 56.7537C86.2542 63.7537 72.7541 58.7537 78.7541 48.2537C82.5006 41.6974 95.774 30.2901 109.254 20.7538C116.916 15.3335 125.214 10.2826 130.383 7.68293C153.999 -5.32348 184.281 -1.816 204.302 18.2054Z" fill="white"/>
<path fill-rule="evenodd" clip-rule="evenodd" d="M110.442 19C110.442 19 66.9999 43.6386 66.9999 63.7385C66 84 66 93 66.9999 111.5C74.3233 112.862 84.4892 113.877 95.5288 114.44V86.1351C95.5288 81.7169 99.1105 78.1351 103.529 78.1351H118.651C123.07 78.1351 126.651 81.7169 126.651 86.1351V114.768C137.818 114.408 148.018 113.482 155.18 111.883C156.5 93 156.5 84 155.18 63.7385C155.18 43.6386 110.442 19 110.442 19Z" fill="white"/>
<path d="M253.324 132.127V64.9269H263.404V93.727H299.116V64.9269H309.196V132.127H299.116V102.847H263.404V132.127H253.324ZM344.966 133.087C340.23 133.087 335.91 131.967 332.006 129.727C328.166 127.487 325.126 124.447 322.886 120.607C320.646 116.767 319.526 112.479 319.526 107.743C319.526 103.007 320.646 98.719 322.886 94.879C325.126 91.039 328.166 87.999 332.006 85.759C335.91 83.4549 340.23 82.3029 344.966 82.3029C349.766 82.3029 354.086 83.4549 357.926 85.759C361.766 87.999 364.806 91.039 367.046 94.879C369.286 98.719 370.406 103.007 370.406 107.743C370.406 112.479 369.286 116.767 367.046 120.607C364.806 124.447 361.766 127.487 357.926 129.727C354.086 131.967 349.766 133.087 344.966 133.087ZM344.966 124.639C347.974 124.639 350.694 123.903 353.126 122.431C355.558 120.895 357.478 118.847 358.886 116.287C360.294 113.727 360.998 110.847 360.998 107.647C360.998 104.511 360.262 101.695 358.79 99.199C357.382 96.639 355.462 94.591 353.03 93.055C350.662 91.519 347.974 90.751 344.966 90.751C341.958 90.751 339.238 91.519 336.806 93.055C334.438 94.591 332.518 96.639 331.046 99.199C329.638 101.695 328.934 104.511 328.934 107.647C328.934 110.847 329.638 113.727 331.046 116.287C332.454 118.847 334.374 120.895 336.806 122.431C339.238 123.903 341.958 124.639 344.966 124.639ZM379.484 132.127V83.263H389.084V87.967C392.732 84.1909 397.308 82.3029 402.812 82.3029C406.14 82.3029 409.084 83.0389 411.644 84.511C414.268 85.983 416.348 87.967 417.884 90.463C419.932 87.775 422.332 85.759 425.084 84.415C427.836 83.0069 430.94 82.3029 434.396 82.3029C438.044 82.3029 441.212 83.1029 443.9 84.703C446.652 86.303 448.796 88.543 450.332 91.423C451.932 94.303 452.732 97.631 452.732 101.407V132.127H443.132V103.039C443.132 99.199 442.108 96.191 440.06 94.015C438.076 91.775 435.356 90.655 431.9 90.655C429.532 90.655 427.388 91.199 425.468 92.287C423.548 93.375 421.884 95.039 420.476 97.279C420.604 97.919 420.7 98.591 420.764 99.295C420.828 99.999 420.86 100.703 420.86 101.407V132.127H411.356V103.039C411.356 99.199 410.332 96.191 408.284 94.015C406.3 91.775 403.58 90.655 400.124 90.655C397.82 90.655 395.74 91.167 393.884 92.191C392.028 93.151 390.428 94.623 389.084 96.607V132.127H379.484ZM463.766 132.127V83.263H473.366V88.255C477.142 84.2869 482.038 82.3029 488.054 82.3029C491.83 82.3029 495.126 83.1029 497.942 84.703C500.822 86.303 503.062 88.543 504.662 91.423C506.326 94.303 507.158 97.631 507.158 101.407V132.127H497.558V103.039C497.558 99.199 496.47 96.191 494.294 94.015C492.182 91.775 489.206 90.655 485.366 90.655C482.806 90.655 480.502 91.199 478.454 92.287C476.406 93.375 474.71 94.943 473.366 96.991V132.127H463.766ZM518.234 132.127V83.263H527.834V132.127H518.234ZM523.034 75.391C521.434 75.391 520.058 74.815 518.906 73.663C517.754 72.447 517.178 71.0389 517.178 69.4389C517.178 67.775 517.754 66.399 518.906 65.3109C520.058 64.1589 521.434 63.5829 523.034 63.5829C524.698 63.5829 526.106 64.1589 527.258 65.3109C528.41 66.399 528.986 67.775 528.986 69.4389C528.986 71.0389 528.41 72.447 527.258 73.663C526.106 74.815 524.698 75.391 523.034 75.391ZM562.085 132.991C557.413 132.991 553.157 131.871 549.317 129.631C545.477 127.391 542.437 124.351 540.197 120.511C538.021 116.671 536.933 112.383 536.933 107.647C536.933 102.911 538.053 98.655 540.293 94.879C542.533 91.039 545.541 87.999 549.317 85.759C553.157 83.4549 557.413 82.3029 562.085 82.3029C565.797 82.3029 569.349 83.0069 572.741 84.415C576.197 85.823 579.173 87.807 581.669 90.367L575.717 96.991C573.861 94.943 571.781 93.4069 569.477 92.3829C567.173 91.359 564.773 90.847 562.277 90.847C559.333 90.847 556.645 91.583 554.213 93.055C551.845 94.527 549.957 96.543 548.549 99.103C547.141 101.663 546.437 104.511 546.437 107.647C546.437 110.783 547.141 113.631 548.549 116.191C549.957 118.751 551.877 120.799 554.309 122.335C556.741 123.807 559.461 124.543 562.469 124.543C564.965 124.543 567.301 124.063 569.477 123.103C571.653 122.079 573.701 120.607 575.621 118.687L581.477 124.831C578.917 127.455 575.941 129.471 572.549 130.879C569.221 132.287 565.733 132.991 562.085 132.991ZM606.472 133.087C602.248 133.087 598.28 132.479 594.568 131.263C590.92 129.983 587.752 128.191 585.064 125.887L590.344 119.551C592.84 121.535 595.4 123.071 598.024 124.159C600.712 125.183 603.432 125.695 606.184 125.695C609.64 125.695 612.456 125.023 614.632 123.679C616.808 122.335 617.896 120.575 617.896 118.399C617.896 116.607 617.256 115.199 615.976 114.175C614.696 113.151 612.712 112.447 610.024 112.063L601.192 110.815C596.328 110.111 592.68 108.607 590.248 106.303C587.816 103.999 586.6 100.927 586.6 97.087C586.6 94.143 587.4 91.583 589 89.407C590.6 87.167 592.84 85.439 595.72 84.223C598.6 82.9429 601.96 82.3029 605.8 82.3029C609.32 82.3029 612.712 82.8149 615.976 83.839C619.24 84.863 622.376 86.463 625.384 88.639L620.488 94.975C617.8 93.183 615.176 91.871 612.616 91.0389C610.12 90.207 607.592 89.791 605.032 89.791C602.088 89.791 599.72 90.431 597.928 91.7109C596.136 92.927 595.24 94.527 595.24 96.511C595.24 98.303 595.848 99.711 597.064 100.735C598.344 101.695 600.424 102.367 603.304 102.751L612.136 103.999C617 104.703 620.68 106.207 623.176 108.511C625.672 110.751 626.92 113.791 626.92 117.631C626.92 120.575 626.024 123.231 624.232 125.599C622.44 127.903 620.008 129.727 616.936 131.071C613.864 132.415 610.376 133.087 606.472 133.087Z" fill="white"/>
<path d="M637.392 132.127V64.9269H644.784V94.975H683.856V64.9269H691.248V132.127H683.856V101.599H644.784V132.127H637.392ZM706.017 132.127V64.9269H716.385L739.329 112.639L762.177 64.9269H772.545V132.127H765.537V73.3749L739.233 127.327L712.929 73.471V132.127H706.017ZM818.786 133.183C813.922 133.183 809.378 132.319 805.154 130.591C800.994 128.799 797.314 126.335 794.114 123.199C790.978 119.999 788.514 116.319 786.722 112.159C784.994 107.935 784.13 103.391 784.13 98.527C784.13 93.663 784.994 89.151 786.722 84.991C788.514 80.7669 790.978 77.087 794.114 73.951C797.314 70.751 800.994 68.287 805.154 66.559C809.378 64.767 813.922 63.871 818.786 63.871C823.586 63.871 828.066 64.767 832.226 66.559C836.45 68.287 840.13 70.751 843.266 73.951C846.466 77.087 848.93 80.7669 850.658 84.991C852.45 89.151 853.346 93.663 853.346 98.527C853.346 103.391 852.45 107.935 850.658 112.159C848.93 116.319 846.466 119.999 843.266 123.199C840.13 126.335 836.45 128.799 832.226 130.591C828.066 132.319 823.586 133.183 818.786 133.183ZM818.786 126.367C822.626 126.367 826.178 125.663 829.442 124.255C832.706 122.847 835.554 120.895 837.986 118.399C840.482 115.839 842.402 112.863 843.746 109.471C845.154 106.079 845.858 102.431 845.858 98.527C845.858 94.559 845.154 90.911 843.746 87.583C842.402 84.191 840.482 81.247 837.986 78.7509C835.554 76.191 832.706 74.207 829.442 72.799C826.178 71.3909 822.626 70.6869 818.786 70.6869C814.946 70.6869 811.362 71.3909 808.034 72.799C804.77 74.207 801.89 76.191 799.394 78.7509C796.962 81.247 795.042 84.191 793.634 87.583C792.29 90.911 791.618 94.527 791.618 98.431C791.618 102.399 792.29 106.079 793.634 109.471C795.042 112.863 796.962 115.839 799.394 118.399C801.89 120.895 804.77 122.847 808.034 124.255C811.362 125.663 814.946 126.367 818.786 126.367Z" fill="white"/>
</svg>
