<svg width="170" height="58" viewBox="0 0 170 58" fill="none" xmlns="http://www.w3.org/2000/svg">
<rect width="170" height="58" rx="8" fill="#1F4149"/>
<g clip-path="url(#clip0_1119_10895)">
<path d="M38.364 13.016C38.296 12.94 35.846 13.046 33.714 15.36C31.582 17.672 31.91 20.324 31.958 20.392C32.006 20.46 34.998 20.566 36.908 17.876C38.818 15.186 38.432 13.094 38.364 13.016ZM44.992 36.482C44.896 36.29 40.342 34.014 40.766 29.638C41.19 25.26 44.116 24.06 44.162 23.93C44.208 23.8 42.968 22.35 41.654 21.616C40.6892 21.0985 39.6215 20.802 38.528 20.748C38.312 20.742 37.562 20.558 36.02 20.98C35.004 21.258 32.714 22.158 32.084 22.194C31.452 22.23 29.572 21.15 27.55 20.864C26.256 20.614 24.884 21.126 23.902 21.52C22.922 21.912 21.058 23.028 19.754 25.994C18.45 28.958 19.132 33.654 19.62 35.114C20.108 36.572 20.87 38.962 22.166 40.706C23.318 42.674 24.846 44.04 25.484 44.504C26.122 44.968 27.922 45.276 29.17 44.638C30.174 44.022 31.986 43.668 32.702 43.694C33.416 43.72 34.824 44.002 36.266 44.772C37.408 45.166 38.488 45.002 39.57 44.562C40.652 44.12 42.218 42.444 44.046 39.046C44.74 37.466 45.056 36.612 44.992 36.482Z" fill="#F5FFFF"/>
</g>
<path d="M58.158 20.103H60.238C60.8967 20.103 61.486 19.9427 62.006 19.622C62.526 19.3013 62.9377 18.868 63.241 18.322C63.553 17.7673 63.709 17.1433 63.709 16.45C63.709 15.7567 63.553 15.137 63.241 14.591C62.9377 14.0363 62.526 13.5987 62.006 13.278C61.486 12.9573 60.8967 12.797 60.238 12.797H58.158V20.103ZM57.157 21V11.9H60.173C60.8403 11.9 61.4513 12.017 62.006 12.251C62.5693 12.4763 63.0503 12.797 63.449 13.213C63.8563 13.6203 64.1683 14.1013 64.385 14.656C64.6103 15.202 64.723 15.8 64.723 16.45C64.723 17.1 64.6103 17.7023 64.385 18.257C64.1683 18.803 63.8563 19.284 63.449 19.7C63.0503 20.1073 62.5693 20.428 62.006 20.662C61.4513 20.8873 60.8403 21 60.173 21H57.157ZM68.981 21.104C68.3917 21.104 67.863 20.961 67.395 20.675C66.927 20.389 66.5587 19.999 66.29 19.505C66.0213 19.011 65.887 18.452 65.887 17.828C65.887 17.204 66.0213 16.645 66.29 16.151C66.5587 15.657 66.927 15.267 67.395 14.981C67.863 14.695 68.3917 14.552 68.981 14.552C69.5617 14.552 70.0817 14.695 70.541 14.981C71.009 15.267 71.3773 15.657 71.646 16.151C71.9147 16.645 72.049 17.204 72.049 17.828C72.049 18.452 71.9147 19.011 71.646 19.505C71.3773 19.999 71.009 20.389 70.541 20.675C70.0817 20.961 69.5617 21.104 68.981 21.104ZM68.968 20.272C69.384 20.272 69.7523 20.168 70.073 19.96C70.3937 19.7433 70.645 19.4487 70.827 19.076C71.0177 18.7033 71.113 18.2873 71.113 17.828C71.113 17.36 71.0177 16.944 70.827 16.58C70.645 16.2073 70.3937 15.917 70.073 15.709C69.7523 15.4923 69.384 15.384 68.968 15.384C68.552 15.384 68.1837 15.4923 67.863 15.709C67.5423 15.917 67.2867 16.2073 67.096 16.58C66.914 16.944 66.823 17.36 66.823 17.828C66.823 18.2873 66.914 18.7033 67.096 19.076C67.2867 19.4487 67.5423 19.7433 67.863 19.96C68.1837 20.168 68.552 20.272 68.968 20.272ZM74.4581 21L72.7161 14.656H73.6391L74.9651 19.726L76.4861 14.656H77.3311L78.8521 19.726L80.1651 14.656H81.0621L79.3331 21H78.4101L76.9021 15.878L75.3941 21H74.4581ZM82.1442 21V14.656H83.0932V15.683C83.3359 15.3017 83.6262 15.02 83.9642 14.838C84.3022 14.6473 84.6836 14.552 85.1082 14.552C85.5676 14.552 85.9662 14.6517 86.3042 14.851C86.6509 15.0417 86.9196 15.3147 87.1102 15.67C87.3096 16.0167 87.4092 16.424 87.4092 16.892V21H86.4602V17.165C86.4602 16.6017 86.3042 16.1597 85.9922 15.839C85.6889 15.5097 85.2772 15.345 84.7572 15.345C84.4106 15.345 84.0942 15.4273 83.8082 15.592C83.5222 15.7567 83.2839 15.9993 83.0932 16.32V21H82.1442ZM89.0571 21V11.614L90.0061 11.419V21H89.0571ZM94.4996 21.104C93.9103 21.104 93.3816 20.961 92.9136 20.675C92.4456 20.389 92.0773 19.999 91.8086 19.505C91.5399 19.011 91.4056 18.452 91.4056 17.828C91.4056 17.204 91.5399 16.645 91.8086 16.151C92.0773 15.657 92.4456 15.267 92.9136 14.981C93.3816 14.695 93.9103 14.552 94.4996 14.552C95.0803 14.552 95.6003 14.695 96.0596 14.981C96.5276 15.267 96.8959 15.657 97.1646 16.151C97.4333 16.645 97.5676 17.204 97.5676 17.828C97.5676 18.452 97.4333 19.011 97.1646 19.505C96.8959 19.999 96.5276 20.389 96.0596 20.675C95.6003 20.961 95.0803 21.104 94.4996 21.104ZM94.4866 20.272C94.9026 20.272 95.2709 20.168 95.5916 19.96C95.9123 19.7433 96.1636 19.4487 96.3456 19.076C96.5363 18.7033 96.6316 18.2873 96.6316 17.828C96.6316 17.36 96.5363 16.944 96.3456 16.58C96.1636 16.2073 95.9123 15.917 95.5916 15.709C95.2709 15.4923 94.9026 15.384 94.4866 15.384C94.0706 15.384 93.7023 15.4923 93.3816 15.709C93.0609 15.917 92.8053 16.2073 92.6146 16.58C92.4326 16.944 92.3416 17.36 92.3416 17.828C92.3416 18.2873 92.4326 18.7033 92.6146 19.076C92.8053 19.4487 93.0609 19.7433 93.3816 19.96C93.7023 20.168 94.0706 20.272 94.4866 20.272ZM100.999 21.117C100.548 21.117 100.15 21.0347 99.8031 20.87C99.4564 20.7053 99.1834 20.48 98.9841 20.194C98.7934 19.8993 98.6981 19.5613 98.6981 19.18C98.6981 18.7987 98.7978 18.4693 98.9971 18.192C99.1964 17.906 99.4738 17.685 99.8291 17.529C100.184 17.373 100.6 17.295 101.077 17.295C101.441 17.295 101.783 17.334 102.104 17.412C102.433 17.49 102.737 17.6157 103.014 17.789V16.918C103.014 16.398 102.875 16.008 102.598 15.748C102.321 15.4793 101.913 15.345 101.376 15.345C101.081 15.345 100.778 15.3883 100.466 15.475C100.163 15.5617 99.8248 15.7003 99.4521 15.891L99.1011 15.163C99.9504 14.7557 100.748 14.552 101.493 14.552C102.282 14.552 102.888 14.747 103.313 15.137C103.738 15.5183 103.95 16.0687 103.95 16.788V21H103.014V20.259C102.737 20.545 102.429 20.7617 102.091 20.909C101.753 21.0477 101.389 21.117 100.999 21.117ZM99.6081 19.154C99.6081 19.5267 99.7511 19.8257 100.037 20.051C100.332 20.2763 100.717 20.389 101.194 20.389C101.549 20.389 101.874 20.3283 102.169 20.207C102.472 20.0857 102.754 19.9037 103.014 19.661V18.439C102.745 18.283 102.468 18.1703 102.182 18.101C101.896 18.023 101.575 17.984 101.22 17.984C100.735 17.984 100.345 18.0923 100.05 18.309C99.7554 18.517 99.6081 18.7987 99.6081 19.154ZM108.258 21.091C107.712 21.091 107.218 20.948 106.776 20.662C106.334 20.3673 105.983 19.9773 105.723 19.492C105.463 18.998 105.333 18.4477 105.333 17.841C105.333 17.2257 105.463 16.6753 105.723 16.19C105.992 15.696 106.351 15.306 106.802 15.02C107.253 14.7253 107.755 14.578 108.31 14.578C108.7 14.578 109.064 14.656 109.402 14.812C109.74 14.9593 110.035 15.176 110.286 15.462V11.614L111.235 11.419V21H110.286V20.155C110.043 20.4583 109.749 20.6923 109.402 20.857C109.055 21.013 108.674 21.091 108.258 21.091ZM108.492 20.259C108.865 20.259 109.207 20.1853 109.519 20.038C109.831 19.8907 110.087 19.6827 110.286 19.414V16.268C110.078 15.9993 109.814 15.7913 109.493 15.644C109.181 15.488 108.847 15.41 108.492 15.41C108.067 15.41 107.686 15.514 107.348 15.722C107.019 15.93 106.754 16.216 106.555 16.58C106.364 16.944 106.269 17.36 106.269 17.828C106.269 18.2873 106.364 18.7033 106.555 19.076C106.754 19.44 107.019 19.7303 107.348 19.947C107.686 20.155 108.067 20.259 108.492 20.259ZM118.507 21.104C117.918 21.104 117.389 20.961 116.921 20.675C116.453 20.389 116.085 19.999 115.816 19.505C115.548 19.011 115.413 18.452 115.413 17.828C115.413 17.204 115.548 16.645 115.816 16.151C116.085 15.657 116.453 15.267 116.921 14.981C117.389 14.695 117.918 14.552 118.507 14.552C119.088 14.552 119.608 14.695 120.067 14.981C120.535 15.267 120.904 15.657 121.172 16.151C121.441 16.645 121.575 17.204 121.575 17.828C121.575 18.452 121.441 19.011 121.172 19.505C120.904 19.999 120.535 20.389 120.067 20.675C119.608 20.961 119.088 21.104 118.507 21.104ZM118.494 20.272C118.91 20.272 119.279 20.168 119.599 19.96C119.92 19.7433 120.171 19.4487 120.353 19.076C120.544 18.7033 120.639 18.2873 120.639 17.828C120.639 17.36 120.544 16.944 120.353 16.58C120.171 16.2073 119.92 15.917 119.599 15.709C119.279 15.4923 118.91 15.384 118.494 15.384C118.078 15.384 117.71 15.4923 117.389 15.709C117.069 15.917 116.813 16.2073 116.622 16.58C116.44 16.944 116.349 17.36 116.349 17.828C116.349 18.2873 116.44 18.7033 116.622 19.076C116.813 19.4487 117.069 19.7433 117.389 19.96C117.71 20.168 118.078 20.272 118.494 20.272ZM122.98 21V14.656H123.929V15.683C124.172 15.3017 124.462 15.02 124.8 14.838C125.138 14.6473 125.52 14.552 125.944 14.552C126.404 14.552 126.802 14.6517 127.14 14.851C127.487 15.0417 127.756 15.3147 127.946 15.67C128.146 16.0167 128.245 16.424 128.245 16.892V21H127.296V17.165C127.296 16.6017 127.14 16.1597 126.828 15.839C126.525 15.5097 126.113 15.345 125.593 15.345C125.247 15.345 124.93 15.4273 124.644 15.592C124.358 15.7567 124.12 15.9993 123.929 16.32V21H122.98ZM135.085 21.13C134.539 21.13 134.123 21 133.837 20.74C133.56 20.4713 133.421 20.0857 133.421 19.583V15.436H132.108V14.656H133.421V12.914L134.37 12.693V14.656H136.19V15.436H134.37V19.336C134.37 19.674 134.44 19.9167 134.578 20.064C134.726 20.2113 134.964 20.285 135.293 20.285C135.458 20.285 135.605 20.272 135.735 20.246C135.865 20.22 136.017 20.1767 136.19 20.116V20.961C136.017 21.0217 135.835 21.065 135.644 21.091C135.454 21.117 135.267 21.13 135.085 21.13ZM137.321 21V11.614L138.27 11.419V15.683C138.512 15.3017 138.803 15.02 139.141 14.838C139.479 14.6473 139.86 14.552 140.285 14.552C140.744 14.552 141.143 14.6517 141.481 14.851C141.827 15.0417 142.096 15.3147 142.287 15.67C142.486 16.0167 142.586 16.424 142.586 16.892V21H141.637V17.165C141.637 16.6017 141.481 16.1597 141.169 15.839C140.865 15.5097 140.454 15.345 139.934 15.345C139.587 15.345 139.271 15.4273 138.985 15.592C138.699 15.7567 138.46 15.9993 138.27 16.32V21H137.321ZM147.093 21.13C146.504 21.13 145.971 20.987 145.494 20.701C145.018 20.4063 144.641 20.012 144.363 19.518C144.086 19.0153 143.947 18.452 143.947 17.828C143.947 17.204 144.077 16.645 144.337 16.151C144.606 15.657 144.966 15.267 145.416 14.981C145.867 14.695 146.37 14.552 146.924 14.552C147.488 14.552 147.986 14.695 148.419 14.981C148.861 15.2583 149.208 15.6397 149.459 16.125C149.719 16.6017 149.849 17.1433 149.849 17.75V18.036H144.87C144.905 18.4693 145.022 18.8593 145.221 19.206C145.429 19.544 145.698 19.8127 146.027 20.012C146.365 20.2027 146.734 20.298 147.132 20.298C147.462 20.298 147.778 20.2417 148.081 20.129C148.393 20.0077 148.658 19.8473 148.874 19.648L149.472 20.285C149.108 20.571 148.731 20.7833 148.341 20.922C147.951 21.0607 147.535 21.13 147.093 21.13ZM144.896 17.36H148.913C148.87 16.9787 148.753 16.6407 148.562 16.346C148.38 16.0427 148.146 15.8043 147.86 15.631C147.583 15.4577 147.271 15.371 146.924 15.371C146.578 15.371 146.261 15.4577 145.975 15.631C145.689 15.7957 145.451 16.0297 145.26 16.333C145.078 16.6277 144.957 16.97 144.896 17.36ZM56.12 45L61.62 31H64.4L69.82 45H67.24L65.8 41.08H60.06L58.62 45H56.12ZM60.76 39.2H65.14L62.94 33.28L60.76 39.2ZM71.3453 49.18V34.98H73.5653V36.4C73.9253 35.92 74.372 35.5533 74.9053 35.3C75.452 35.0333 76.0453 34.9 76.6853 34.9C77.5386 34.9 78.3053 35.1267 78.9853 35.58C79.6653 36.0333 80.2053 36.6467 80.6053 37.42C81.0053 38.1933 81.2053 39.0533 81.2053 40C81.2053 40.9467 80.9986 41.8067 80.5853 42.58C80.172 43.3533 79.612 43.9667 78.9053 44.42C78.1986 44.8733 77.412 45.1 76.5453 45.1C75.9453 45.1 75.392 44.9933 74.8853 44.78C74.392 44.5533 73.9653 44.2333 73.6053 43.82V49.18H71.3453ZM76.0053 43.22C76.5786 43.22 77.0853 43.08 77.5253 42.8C77.9786 42.52 78.332 42.14 78.5853 41.66C78.852 41.1667 78.9853 40.6133 78.9853 40C78.9853 39.3867 78.852 38.84 78.5853 38.36C78.332 37.88 77.9786 37.5 77.5253 37.22C77.0853 36.94 76.5786 36.8 76.0053 36.8C75.512 36.8 75.0586 36.9 74.6453 37.1C74.232 37.2867 73.8853 37.56 73.6053 37.92V42.1C73.8986 42.4467 74.252 42.72 74.6653 42.92C75.0786 43.12 75.5253 43.22 76.0053 43.22ZM83.5719 49.18V34.98H85.7919V36.4C86.1519 35.92 86.5985 35.5533 87.1319 35.3C87.6785 35.0333 88.2719 34.9 88.9119 34.9C89.7652 34.9 90.5319 35.1267 91.2119 35.58C91.8919 36.0333 92.4319 36.6467 92.8319 37.42C93.2319 38.1933 93.4319 39.0533 93.4319 40C93.4319 40.9467 93.2252 41.8067 92.8119 42.58C92.3985 43.3533 91.8385 43.9667 91.1319 44.42C90.4252 44.8733 89.6385 45.1 88.7719 45.1C88.1719 45.1 87.6185 44.9933 87.1119 44.78C86.6185 44.5533 86.1919 44.2333 85.8319 43.82V49.18H83.5719ZM88.2319 43.22C88.8052 43.22 89.3119 43.08 89.7519 42.8C90.2052 42.52 90.5585 42.14 90.8119 41.66C91.0785 41.1667 91.2119 40.6133 91.2119 40C91.2119 39.3867 91.0785 38.84 90.8119 38.36C90.5585 37.88 90.2052 37.5 89.7519 37.22C89.3119 36.94 88.8052 36.8 88.2319 36.8C87.7385 36.8 87.2852 36.9 86.8719 37.1C86.4585 37.2867 86.1119 37.56 85.8319 37.92V42.1C86.1252 42.4467 86.4785 42.72 86.8919 42.92C87.3052 43.12 87.7519 43.22 88.2319 43.22ZM105.251 45.22C104.157 45.22 103.124 45.0333 102.151 44.66C101.191 44.2733 100.264 43.7067 99.3706 42.96L100.671 41.2C101.577 41.9333 102.384 42.46 103.091 42.78C103.811 43.0867 104.577 43.24 105.391 43.24C106.004 43.24 106.544 43.1467 107.011 42.96C107.491 42.76 107.857 42.4933 108.111 42.16C108.377 41.8267 108.511 41.44 108.511 41C108.511 40.4267 108.317 39.9933 107.931 39.7C107.557 39.3933 106.904 39.16 105.971 39L103.391 38.56C102.177 38.3467 101.271 37.94 100.671 37.34C100.084 36.7267 99.7906 35.9467 99.7906 35C99.7906 34.16 100.004 33.4267 100.431 32.8C100.857 32.16 101.451 31.6667 102.211 31.32C102.984 30.96 103.897 30.78 104.951 30.78C106.004 30.78 107.004 30.9333 107.951 31.24C108.897 31.5467 109.771 31.9933 110.571 32.58L109.351 34.38C108.644 33.8467 107.917 33.4467 107.171 33.18C106.424 32.9 105.657 32.76 104.871 32.76C104.311 32.76 103.817 32.8467 103.391 33.02C102.977 33.1933 102.651 33.4333 102.411 33.74C102.184 34.0467 102.071 34.3867 102.071 34.76C102.071 35.2667 102.237 35.66 102.571 35.94C102.917 36.2067 103.471 36.4067 104.231 36.54L106.731 36.96C108.144 37.2133 109.184 37.6533 109.851 38.28C110.531 38.9067 110.871 39.7533 110.871 40.82C110.871 41.6733 110.631 42.4333 110.151 43.1C109.684 43.7667 109.031 44.2867 108.191 44.66C107.351 45.0333 106.371 45.22 105.251 45.22ZM117.052 45.2C116.039 45.2 115.272 44.9667 114.752 44.5C114.232 44.02 113.972 43.32 113.972 42.4V36.78H111.972V34.98H113.972V32.22L116.232 31.74V34.98H119.012V36.78H116.232V41.9C116.232 42.3933 116.339 42.7467 116.552 42.96C116.765 43.16 117.125 43.26 117.632 43.26C117.859 43.26 118.065 43.2467 118.252 43.22C118.452 43.18 118.699 43.1133 118.992 43.02V44.92C118.712 45.0133 118.392 45.08 118.032 45.12C117.685 45.1733 117.359 45.2 117.052 45.2ZM125.437 45.18C124.49 45.18 123.63 44.9533 122.857 44.5C122.097 44.0467 121.497 43.4333 121.057 42.66C120.617 41.8733 120.397 40.9867 120.397 40C120.397 39.0133 120.617 38.1333 121.057 37.36C121.497 36.5733 122.097 35.9533 122.857 35.5C123.617 35.0467 124.477 34.82 125.437 34.82C126.397 34.82 127.25 35.0467 127.997 35.5C128.757 35.9533 129.357 36.5733 129.797 37.36C130.237 38.1333 130.457 39.0133 130.457 40C130.457 40.9867 130.237 41.8733 129.797 42.66C129.357 43.4333 128.757 44.0467 127.997 44.5C127.25 44.9533 126.397 45.18 125.437 45.18ZM125.437 43.26C125.984 43.26 126.464 43.12 126.877 42.84C127.304 42.56 127.637 42.1733 127.877 41.68C128.117 41.1733 128.237 40.6133 128.237 40C128.237 39.3733 128.117 38.82 127.877 38.34C127.637 37.8467 127.304 37.46 126.877 37.18C126.464 36.8867 125.984 36.74 125.437 36.74C124.89 36.74 124.404 36.8867 123.977 37.18C123.55 37.46 123.217 37.8467 122.977 38.34C122.737 38.82 122.617 39.3733 122.617 40C122.617 40.6267 122.737 41.1867 122.977 41.68C123.217 42.1733 123.55 42.56 123.977 42.84C124.404 43.12 124.89 43.26 125.437 43.26ZM132.791 45V34.98H135.051V37.14C135.344 36.38 135.724 35.8 136.191 35.4C136.657 35 137.197 34.8 137.811 34.8C137.997 34.8133 138.164 34.8333 138.311 34.86C138.457 34.8733 138.617 34.92 138.791 35V36.98C138.617 36.9 138.417 36.84 138.191 36.8C137.977 36.76 137.764 36.74 137.551 36.74C137.004 36.74 136.511 36.8867 136.071 37.18C135.644 37.4733 135.304 37.88 135.051 38.4V45H132.791ZM144.833 45.2C143.873 45.2 143.007 44.9733 142.233 44.52C141.46 44.0533 140.847 43.4333 140.393 42.66C139.94 41.8733 139.713 40.9867 139.713 40C139.713 39.0133 139.927 38.1333 140.353 37.36C140.78 36.5867 141.36 35.9733 142.093 35.52C142.84 35.0533 143.667 34.82 144.573 34.82C145.507 34.82 146.327 35.0467 147.033 35.5C147.753 35.9533 148.313 36.5667 148.713 37.34C149.127 38.1133 149.333 39 149.333 40V40.54H141.933C142.013 41.0867 142.187 41.5733 142.453 42C142.733 42.4133 143.087 42.74 143.513 42.98C143.953 43.22 144.427 43.34 144.933 43.34C145.4 43.34 145.84 43.26 146.253 43.1C146.68 42.9267 147.033 42.6933 147.313 42.4L148.793 43.74C148.18 44.2467 147.553 44.62 146.913 44.86C146.287 45.0867 145.593 45.2 144.833 45.2ZM141.953 39.14H147.193C147.113 38.66 146.947 38.2333 146.693 37.86C146.453 37.4867 146.147 37.1933 145.773 36.98C145.413 36.7667 145.013 36.66 144.573 36.66C144.133 36.66 143.727 36.7667 143.353 36.98C142.993 37.18 142.693 37.4667 142.453 37.84C142.213 38.2133 142.047 38.6467 141.953 39.14Z" fill="#F5FFFF"/>
<defs>
<clipPath id="clip0_1119_10895">
<rect width="32" height="32" fill="white" transform="translate(16 13)"/>
</clipPath>
</defs>
</svg>
