<svg width="48" height="40" viewBox="0 0 48 40" fill="none" xmlns="http://www.w3.org/2000/svg">
<g clip-path="url(#clip0_587_13833)">
<path d="M18.0664 14.9117C17.2465 14.9117 16.4819 15.3533 16.0707 16.0641C15.7615 16.5986 15.0777 16.7812 14.5431 16.4722C14.0086 16.1631 13.826 15.4791 14.1351 14.9446C14.9445 13.545 16.451 12.6756 18.0664 12.6756C19.6817 12.6756 21.1881 13.545 21.9977 14.9445C22.3069 15.479 22.1242 16.163 21.5897 16.472C21.4136 16.574 21.2208 16.6225 21.031 16.6226C20.6448 16.6226 20.2693 16.4225 20.0621 16.0643C19.6509 15.3532 18.8861 14.9117 18.0664 14.9117ZM23.9471 26.7669C23.1272 26.7669 22.3625 26.3253 21.9513 25.6145C21.6421 25.08 20.9581 24.8972 20.4237 25.2064C19.8892 25.5155 19.7066 26.1994 20.0156 26.734C20.8251 28.1336 22.3316 29.003 23.9471 29.003C25.5623 29.003 27.0688 28.1336 27.8783 26.7341C28.1875 26.1996 28.0049 25.5156 27.4704 25.2066C26.936 24.8974 26.252 25.0799 25.9429 25.6143C25.5317 26.3253 24.767 26.7669 23.9471 26.7669ZM47.332 15.8701V20.9685C47.332 22.8701 45.8358 24.472 43.9342 24.472H41.8693C41.1912 26.5838 40.1151 28.6284 38.6659 30.4559C36.2847 33.4586 33.0079 35.6398 29.364 36.7395C29.2001 38.579 27.6507 40 25.7701 40H22.1242C20.1346 40 18.5158 38.3874 18.5158 36.3977C18.5158 34.4075 20.1346 32.7951 22.1242 32.7951H25.7701C27.0796 32.7951 28.2284 33.5158 28.8608 34.5625C35.7519 32.4304 40.4856 26.0859 40.4856 18.7859C40.4856 11.6809 35.9823 5.6079 29.6798 3.27177C28.0418 5.28515 25.9823 6.9602 23.6808 8.14465C21.0487 9.49905 18.0824 10.2151 15.1027 10.2151C14.757 10.2151 14.405 10.2054 14.0566 10.1862C13.4401 10.1526 12.9675 9.6254 13.0013 9.0089C13.0351 8.39235 13.5603 7.9161 14.1787 7.9535C14.4868 7.97035 14.7977 7.9787 15.1029 7.9787C19.8235 7.9787 24.1899 6.0345 27.3183 2.59202C26.2715 2.37438 25.1893 2.25525 24.0809 2.24643C24.0744 2.24581 24.0636 2.24494 24.0546 2.24494C24.0506 2.24519 24.0459 2.24208 24.0418 2.24208C24.0333 2.24183 24.0235 2.23637 24.0149 2.23637C24.0107 2.23637 24.0068 2.23637 24.0025 2.23637C23.994 2.23637 23.9841 2.23637 23.9751 2.23637C23.9709 2.23637 23.9673 2.23637 23.9626 2.23637C23.9574 2.23637 23.9522 2.23637 23.9471 2.23637C14.8276 2.23612 7.4565 9.6664 7.4565 18.7857V23.299C7.4565 23.9165 6.9079 24.472 6.2905 24.472H3.95998C2.05838 24.472 0.5 22.8701 0.5 20.9685V15.8701C0.5 14.3676 1.4672 13.048 2.90036 12.5866C3.48818 12.397 4.12234 12.7203 4.31153 13.3083C4.50072 13.8958 4.17489 14.5258 3.58706 14.715C3.0893 14.8753 2.73589 15.3502 2.73589 15.8701V20.9685C2.73589 21.637 3.29117 22.236 3.95986 22.236H5.22047V18.7857C5.22047 8.43335 13.5947 0.00011042 23.9471 0.00011042C23.9529 0.00011042 23.9591 0.00011042 23.9648 0.00011042C23.9694 0.00011042 23.9743 0.00011042 23.979 0.00011042C23.9834 0.00011042 23.9882 0.00011042 23.9926 0.00011042H23.9928C23.9984 0.00011042 24.0047 0.00011042 24.0104 0.00011042C24.015 0.00011042 24.0201 0.00011042 24.0243 0.00011042C24.0288 0.00011042 24.0334 0.00011042 24.0378 0.00011042H24.0389C24.0449 0.00011042 24.0501 0.00011042 24.0562 0.00011042C24.0611 0.00011042 24.0654 0.00011042 24.0703 0.00011042C24.075 0.00011042 24.0806 0.00011042 24.0854 0.00011042C24.091 0.00011042 24.0961 0.00011042 24.1017 0.00011042C24.1066 0.00011042 24.1106 0.00011042 24.1155 0.00011042C24.1216 0.00011042 24.1262 0.00011042 24.1318 0.00011042C24.1369 0.00011042 24.1421 0.00011042 24.1474 0.00011042C24.1518 0.00011042 24.1567 0.00011042 24.1612 0.00011042C24.1674 0.00011042 24.1726 0.00011042 24.1789 0.00011042C24.1833 0.00011042 24.1891 0.00011042 24.1933 0.00011042C24.1975 0.00011042 24.2024 -0.000138026 24.2067 0.00011042C24.2124 0.00011042 24.219 0.00011042 24.2248 0.00011042C24.2297 0.00011042 24.2339 0.00011042 24.2388 0.00011042C24.2429 0.00011042 24.2482 0.00706695 24.2521 0.0069427C24.2579 0.00719115 24.2637 0.0136507 24.2698 0.0138992C24.2743 0.013775 24.2798 0.013775 24.284 0.0141477C24.288 0.0141477 24.2934 0.0140233 24.2974 0.014396C24.3032 0.0142718 24.3096 0.0146446 24.3157 0.0146446C24.3204 0.014893 24.3244 0.0147688 24.3293 0.0150172C24.3332 0.0150172 24.3387 0.0151414 24.3427 0.0152656C24.3483 0.0153898 24.3559 0.0157625 24.3617 0.0156383C24.3663 0.0158867 24.3706 0.0158868 24.3749 0.016011C24.3794 0.016011 24.3837 0.0162593 24.3881 0.0162593C24.3937 0.0166319 24.4009 0.0165079 24.4065 0.0167564C24.411 0.0166322 24.4154 0.0170047 24.42 0.0170047C24.4244 0.0173774 24.4288 0.0173774 24.4333 0.0173774C24.4391 0.0176259 24.4454 0.0176258 24.4514 0.0178743C24.456 0.0181227 24.4601 0.0181228 24.4648 0.018247C24.4692 0.0184954 24.474 0.0184955 24.4781 0.0184955C24.4839 0.0188682 24.4886 0.0186195 24.4944 0.018868C24.4993 0.0191164 24.5042 0.018868 24.5092 0.018868C24.5139 0.0191164 24.5179 0.0183712 24.5229 0.0186196C24.5278 0.0187438 24.5324 0.0167563 24.5373 0.0177501C24.5427 0.0179986 24.5482 0.014893 24.5536 0.0155142C24.5585 0.0156383 24.5622 0.010421 24.5673 0.0102968C24.5768 0.0106695 24.5863 0.000234575 24.5958 0.000234575H24.5972C24.6017 0.000234575 24.6065 0.000234575 24.6109 0.000234575H24.6117C26.32 0.124458 28.0041 0.368059 29.6271 0.882715C29.6497 0.88992 29.6721 0.916005 29.6941 0.924575C37.2442 3.3576 42.7215 10.4646 42.7215 18.8133C42.7215 19.9658 42.6198 21.1181 42.4192 22.2362H43.9341C44.6026 22.2362 45.0959 21.6371 45.0959 20.9685V15.8702C45.0959 15.3504 44.7672 14.8755 44.2695 14.7152C43.6818 14.526 43.3776 13.896 43.5668 13.3083C43.756 12.7206 44.3733 12.3978 44.961 12.5866C46.3944 13.0481 47.332 14.3676 47.332 15.8701ZM27.1423 36.4122C27.1423 36.3197 27.1332 36.2501 27.1156 36.1627C27.1131 36.152 27.1109 36.1315 27.1088 36.1208C26.9708 35.5086 26.4229 35.0311 25.7701 35.0311H22.1243C21.3676 35.0311 20.7519 35.6407 20.7519 36.3973C20.7519 37.1546 21.3676 37.764 22.1243 37.764H25.7701C26.5267 37.7639 27.1423 37.1689 27.1423 36.4122ZM26.3044 16.472C26.8388 16.7814 27.5228 16.5987 27.832 16.0643C28.2433 15.3532 29.0081 14.9117 29.8278 14.9117C30.6475 14.9117 31.4123 15.3533 31.8235 16.0643C32.0307 16.4225 32.4062 16.6226 32.7924 16.6226C32.9823 16.6225 33.1749 16.574 33.3511 16.472C33.8857 16.163 34.0682 15.479 33.759 14.9445C32.9495 13.545 31.4431 12.6756 29.8278 12.6756C28.2125 12.6756 26.706 13.545 25.8965 14.9445C25.5873 15.479 25.7699 16.163 26.3044 16.472Z" fill="#5199D3"/>
</g>
<defs>
<clipPath id="clip0_587_13833">
<rect width="47" height="40" fill="white" transform="translate(0.5)"/>
</clipPath>
</defs>
</svg>
