<svg width="40" height="40" viewBox="0 0 40 40" fill="none" xmlns="http://www.w3.org/2000/svg">
<path d="M39.8702 7.41115V6.50115C39.8702 5.7599 39.2691 5.1569 38.5302 5.1569H28.5902C28.2676 5.1569 28.0061 5.4192 28.0061 5.7428C28.0061 6.0664 28.2676 6.32875 28.5902 6.32875H38.5302C38.625 6.32875 38.702 6.4061 38.702 6.50115V7.41115C38.702 7.50625 38.625 7.5836 38.5302 7.5836H28.6279C28.3054 7.5836 28.0439 7.84595 28.0439 8.16955C28.0439 8.4931 28.3054 8.75545 28.6279 8.75545H37.4926V11.3754H24.3445C24.022 11.3754 23.7605 11.6378 23.7605 11.9614C23.7605 12.2849 24.022 12.5472 24.3445 12.5472H28.4266V22.7508H20.5223V15.6774C20.5223 15.3538 20.2608 15.0914 19.9382 15.0914C19.6157 15.0914 19.3542 15.3538 19.3542 15.6774V22.7509H11.4499V12.5472H15.3492C15.6718 12.5472 15.9333 12.2849 15.9333 11.9614C15.9333 11.6378 15.6718 11.3754 15.3492 11.3754H2.37749V8.75545H12.9309C12.9874 9.3817 13.5136 9.87405 14.1524 9.87405H17.1022V12.8335C17.1022 13.512 17.6524 14.064 18.3288 14.064H21.5413C22.2176 14.064 22.7679 13.512 22.7679 12.8335V9.87405H25.7176C26.3939 9.87405 26.9442 9.32205 26.9442 8.6435V5.42045C26.9442 4.74196 26.3939 4.18992 25.7176 4.18992H22.7679V1.23055C22.7679 0.55203 22.2177 0 21.5413 0H18.3288C17.6524 0 17.1022 0.55203 17.1022 1.23055V4.18992H14.1524C13.5663 4.18992 13.0749 4.60453 12.9542 5.1568H1.33993C0.60109 5.1569 0 5.7599 0 6.50115V7.41115C0 8.1083 0.53163 8.6831 1.20942 8.74915V26.3473C1.20942 27.1011 1.82079 27.7146 2.57217 27.7146H3.77948V36.4013H1.33993C0.60109 36.4014 0 37.0045 0 37.7457V38.6557C0 39.3969 0.60109 40 1.33993 40H38.5302C39.2691 40 39.8702 39.3969 39.8702 38.6557V37.7457C39.8702 37.0045 39.2691 36.4014 38.5302 36.4014H36.0906V27.7146H37.298C38.0494 27.7146 38.6607 27.1011 38.6607 26.3473V23.4232C38.6649 23.395 38.667 23.3661 38.667 23.3368C38.667 23.3074 38.6649 23.2785 38.6607 23.2504V12.0478C38.6649 12.0196 38.667 11.9908 38.667 11.9614C38.667 11.932 38.6649 11.9031 38.6607 11.875V8.7492C39.3385 8.6832 39.8702 8.1083 39.8702 7.41115ZM14.094 8.16955V5.7496C14.094 5.74735 14.094 5.7451 14.094 5.7428C14.094 5.74055 14.094 5.7383 14.094 5.736V5.42045C14.094 5.38815 14.1202 5.3618 14.1524 5.3618H17.6862C18.0087 5.3618 18.2703 5.09945 18.2703 4.77586V1.23055C18.2703 1.1982 18.2965 1.17188 18.3288 1.17188H21.5413C21.5735 1.17188 21.5998 1.1982 21.5998 1.23055V4.77586C21.5998 5.09945 21.8613 5.3618 22.1838 5.3618H25.7176C25.7498 5.3618 25.7761 5.38815 25.7761 5.42045V8.6435C25.7761 8.67585 25.7498 8.7022 25.7176 8.7022H22.1838C21.8613 8.7022 21.5998 8.96455 21.5998 9.28815V12.8335C21.5998 12.8658 21.5735 12.8921 21.5413 12.8921H18.3288C18.2965 12.8921 18.2703 12.8658 18.2703 12.8335V9.28815C18.2703 8.96455 18.0087 8.7022 17.6862 8.7022H14.1524C14.1202 8.7022 14.094 8.67585 14.094 8.6435V8.16955ZM29.5946 12.5472H37.4925V22.7509H29.5946V12.5472ZM10.2818 12.5472V22.7508H2.37749V12.5472H10.2818ZM1.33993 7.5836C1.24517 7.5836 1.16807 7.50625 1.16807 7.41115V6.50115C1.16807 6.4061 1.24517 6.32875 1.33993 6.32875H12.9258V7.5836H1.33993ZM38.5302 37.5732C38.625 37.5733 38.702 37.6506 38.702 37.7457V38.6557C38.702 38.7508 38.625 38.8281 38.5302 38.8281H1.33993C1.24517 38.8281 1.16807 38.7508 1.16807 38.6557V37.7457C1.16807 37.6506 1.24517 37.5733 1.33993 37.5733H31.0216C31.3442 37.5733 31.6056 37.311 31.6056 36.9874C31.6056 36.6637 31.3442 36.4014 31.0216 36.4014H28.5317V28.4729H29.4366C29.9702 28.4729 30.4331 28.1637 30.6567 27.7146H34.9226V36.4013H33.1633C32.8407 36.4013 32.5793 36.6637 32.5793 36.9873C32.5793 37.3109 32.8407 37.5732 33.1633 37.5732H38.5302ZM21.4468 31.8512H20.5191V28.4729H27.3636V36.4013H20.5191V33.023H21.4468C21.7694 33.023 22.0309 32.7607 22.0309 32.4371C22.0309 32.1135 21.7694 31.8512 21.4468 31.8512ZM19.935 27.301H10.4335C10.3262 27.301 10.2388 27.2134 10.2388 27.1057V26.3932C10.2388 26.2854 10.3262 26.1978 10.4335 26.1978H29.4366C29.5438 26.1978 29.6312 26.2854 29.6312 26.3932V27.1057C29.6312 27.2134 29.5438 27.301 29.4366 27.301H19.935ZM18.4233 33.023H19.351V36.4013H12.5065V28.4729H19.351V31.8512H18.4233C18.1007 31.8512 17.8393 32.1135 17.8393 32.4371C17.8393 32.7607 18.1007 33.023 18.4233 33.023ZM10.4335 28.4729H11.3385V36.4013H4.94756V27.7146H9.2135C9.43705 28.1637 9.9 28.4729 10.4335 28.4729ZM37.4926 26.3473C37.4926 26.455 37.4053 26.5427 37.298 26.5427H30.7994V26.3932C30.7994 25.6393 30.188 25.0259 29.4366 25.0259H10.4335C9.68215 25.0259 9.07075 25.6393 9.07075 26.3932V26.5427H2.57217C2.46486 26.5427 2.37749 26.455 2.37749 26.3473V23.9228H37.4926V26.3473Z" fill="#5199D3"/>
</svg>
