<svg width="64" height="64" viewBox="0 0 64 64" fill="none" xmlns="http://www.w3.org/2000/svg">
<path d="M32 11.6346L40 16M32 11.6346C24 7.28528 8 3.27995 8 22.072C8 36.7173 11.168 48.0879 16.0133 54.4479C17.7333 56.7066 21.9227 56.0053 23.7147 53.7413C23.9131 53.4751 24.0695 53.1801 24.1787 52.8666L27.0133 45.3999C28.7573 40.8133 35.2427 40.8133 36.9867 45.3999L39.8213 52.8666C39.9413 53.1759 40.08 53.4799 40.2853 53.7413C42.0773 56.0079 46.2667 56.7066 47.9867 54.4479C52.832 48.0879 56 36.72 56 22.072C56 3.28262 40 7.28528 32 11.6346V11.6346Z" stroke="#01232B" stroke-width="4" stroke-linecap="round" stroke-linejoin="round"/>
</svg>
