<svg width="64" height="64" viewBox="0 0 64 64" fill="none" xmlns="http://www.w3.org/2000/svg">
<path d="M56.6853 29.232C57.9493 30.8854 57.9493 33.1174 56.6853 34.768C52.704 39.9654 43.152 50.6667 32 50.6667C20.848 50.6667 11.296 39.9654 7.31466 34.768C6.69968 33.9764 6.36584 33.0025 6.36584 32C6.36584 30.9976 6.69968 30.0237 7.31466 29.232C11.296 24.0347 20.848 13.3334 32 13.3334C43.152 13.3334 52.704 24.0347 56.6853 29.232V29.232Z" stroke="#01232B" stroke-width="4" stroke-linecap="round" stroke-linejoin="round"/>
<path d="M32 40C36.4183 40 40 36.4183 40 32C40 27.5817 36.4183 24 32 24C27.5817 24 24 27.5817 24 32C24 36.4183 27.5817 40 32 40Z" stroke="#01232B" stroke-width="4" stroke-linecap="round" stroke-linejoin="round"/>
</svg>
