<svg width="40" height="40" viewBox="0 0 40 40" fill="none" xmlns="http://www.w3.org/2000/svg">
<path d="M8.75 36.25H5.625C5.45924 36.25 5.30027 36.3158 5.18306 36.4331C5.06585 36.5503 5 36.7092 5 36.875C5 37.0408 5.06585 37.1997 5.18306 37.3169C5.30027 37.4342 5.45924 37.5 5.625 37.5H8.75C8.91576 37.5 9.07473 37.4342 9.19194 37.3169C9.30915 37.1997 9.375 37.0408 9.375 36.875C9.375 36.7092 9.30915 36.5503 9.19194 36.4331C9.07473 36.3158 8.91576 36.25 8.75 36.25Z" fill="#5199D3"/>
<path d="M11.25 36.25H10.625C10.4592 36.25 10.3003 36.3158 10.1831 36.4331C10.0658 36.5503 10 36.7092 10 36.875C10 37.0408 10.0658 37.1997 10.1831 37.3169C10.3003 37.4342 10.4592 37.5 10.625 37.5H11.25C11.4158 37.5 11.5747 37.4342 11.6919 37.3169C11.8092 37.1997 11.875 37.0408 11.875 36.875C11.875 36.7092 11.8092 36.5503 11.6919 36.4331C11.5747 36.3158 11.4158 36.25 11.25 36.25Z" fill="#5199D3"/>
<path d="M6.875 11.875H26.875C27.0408 11.875 27.1997 11.8092 27.3169 11.6919C27.4342 11.5747 27.5 11.4158 27.5 11.25V8.75C27.5 8.58424 27.4342 8.42527 27.3169 8.30806C27.1997 8.19085 27.0408 8.125 26.875 8.125H6.875C6.70924 8.125 6.55027 8.19085 6.43306 8.30806C6.31585 8.42527 6.25 8.58424 6.25 8.75V11.25C6.25 11.4158 6.31585 11.5747 6.43306 11.6919C6.55027 11.8092 6.70924 11.875 6.875 11.875ZM7.5 9.375H26.25V10.625H7.5V9.375Z" fill="#5199D3"/>
<path d="M6.875 16.875H26.875C27.0408 16.875 27.1997 16.8092 27.3169 16.6919C27.4342 16.5747 27.5 16.4158 27.5 16.25V13.75C27.5 13.5842 27.4342 13.4253 27.3169 13.3081C27.1997 13.1908 27.0408 13.125 26.875 13.125H6.875C6.70924 13.125 6.55027 13.1908 6.43306 13.3081C6.31585 13.4253 6.25 13.5842 6.25 13.75V16.25C6.25 16.4158 6.31585 16.5747 6.43306 16.6919C6.55027 16.8092 6.70924 16.875 6.875 16.875ZM7.5 14.375H26.25V15.625H7.5V14.375Z" fill="#5199D3"/>
<path d="M6.875 21.875H26.875C27.0408 21.875 27.1997 21.8092 27.3169 21.6919C27.4342 21.5747 27.5 21.4158 27.5 21.25V18.75C27.5 18.5842 27.4342 18.4253 27.3169 18.3081C27.1997 18.1908 27.0408 18.125 26.875 18.125H6.875C6.70924 18.125 6.55027 18.1908 6.43306 18.3081C6.31585 18.4253 6.25 18.5842 6.25 18.75V21.25C6.25 21.4158 6.31585 21.5747 6.43306 21.6919C6.55027 21.8092 6.70924 21.875 6.875 21.875ZM7.5 19.375H26.25V20.625H7.5V19.375Z" fill="#5199D3"/>
<path d="M18.75 23.125H6.875C6.70924 23.125 6.55027 23.1908 6.43306 23.3081C6.31585 23.4253 6.25 23.5842 6.25 23.75C6.25 23.9158 6.31585 24.0747 6.43306 24.1919C6.55027 24.3092 6.70924 24.375 6.875 24.375H18.75C18.9158 24.375 19.0747 24.3092 19.1919 24.1919C19.3092 24.0747 19.375 23.9158 19.375 23.75C19.375 23.5842 19.3092 23.4253 19.1919 23.3081C19.0747 23.1908 18.9158 23.125 18.75 23.125Z" fill="#5199D3"/>
<path d="M15 25H6.875C6.70924 25 6.55027 25.0658 6.43306 25.1831C6.31585 25.3003 6.25 25.4592 6.25 25.625C6.25 25.7908 6.31585 25.9497 6.43306 26.0669C6.55027 26.1842 6.70924 26.25 6.875 26.25H15C15.1658 26.25 15.3247 26.1842 15.4419 26.0669C15.5592 25.9497 15.625 25.7908 15.625 25.625C15.625 25.4592 15.5592 25.3003 15.4419 25.1831C15.3247 25.0658 15.1658 25 15 25Z" fill="#5199D3"/>
<path d="M8.125 28.125C8.29076 28.125 8.44973 28.0592 8.56694 27.9419C8.68415 27.8247 8.75 27.6658 8.75 27.5C8.75 27.3342 8.68415 27.1753 8.56694 27.0581C8.44973 26.9408 8.29076 26.875 8.125 26.875H6.875C6.70924 26.875 6.55027 26.9408 6.43306 27.0581C6.31585 27.1753 6.25 27.3342 6.25 27.5C6.25 27.6658 6.31585 27.8247 6.43306 27.9419C6.55027 28.0592 6.70924 28.125 6.875 28.125H8.125Z" fill="#5199D3"/>
<path d="M10.625 28.125C10.7908 28.125 10.9497 28.0592 11.0669 27.9419C11.1842 27.8247 11.25 27.6658 11.25 27.5C11.25 27.3342 11.1842 27.1753 11.0669 27.0581C10.9497 26.9408 10.7908 26.875 10.625 26.875H10C9.83424 26.875 9.67527 26.9408 9.55806 27.0581C9.44085 27.1753 9.375 27.3342 9.375 27.5C9.375 27.6658 9.44085 27.8247 9.55806 27.9419C9.67527 28.0592 9.83424 28.125 10 28.125H10.625Z" fill="#5199D3"/>
<path d="M37.5 30C37.4977 28.1198 36.7901 26.3088 35.5172 24.925C34.2442 23.5412 32.4985 22.6852 30.625 22.5262V6.25C30.625 6.16792 30.6088 6.08665 30.5774 6.01082C30.546 5.93499 30.5 5.86609 30.442 5.80805L25.442 0.808047C25.3839 0.750011 25.315 0.703975 25.2392 0.672568C25.1634 0.641161 25.0821 0.624997 25 0.625H3.75C3.58424 0.625 3.42527 0.690848 3.30806 0.808058C3.19085 0.925268 3.125 1.08424 3.125 1.25V38.75C3.125 38.9158 3.19085 39.0747 3.30806 39.1919C3.42527 39.3092 3.58424 39.375 3.75 39.375H30C30.1658 39.375 30.3247 39.3092 30.4419 39.1919C30.5592 39.0747 30.625 38.9158 30.625 38.75V37.4738C32.4985 37.3148 34.2442 36.4588 35.5172 35.075C36.7901 33.6912 37.4977 31.8802 37.5 30ZM25.625 2.75883L28.4912 5.625H25.625V2.75883ZM4.375 38.125V1.875H24.375V6.25C24.375 6.41576 24.4408 6.57473 24.5581 6.69194C24.6753 6.80915 24.8342 6.875 25 6.875H29.375V22.5262C27.501 22.6835 25.7544 23.5389 24.4814 24.9232C23.2084 26.3074 22.5019 28.1194 22.5019 30C22.5019 31.8806 23.2084 33.6926 24.4814 35.0768C25.7544 36.4611 27.501 37.3165 29.375 37.4738V38.125H4.375ZM30 36.25C28.7639 36.25 27.5555 35.8834 26.5277 35.1967C25.4999 34.5099 24.6988 33.5338 24.2258 32.3918C23.7527 31.2497 23.6289 29.9931 23.8701 28.7807C24.1112 27.5683 24.7065 26.4547 25.5806 25.5806C26.4547 24.7065 27.5683 24.1112 28.7807 23.8701C29.9931 23.6289 31.2497 23.7527 32.3918 24.2258C33.5338 24.6988 34.5099 25.4999 35.1967 26.5277C35.8834 27.5555 36.25 28.7639 36.25 30C36.2481 31.657 35.589 33.2456 34.4173 34.4173C33.2456 35.589 31.657 36.2481 30 36.25Z" fill="#5199D3"/>
<path d="M33.567 26.4331C33.5089 26.375 33.44 26.329 33.3642 26.2976C33.2884 26.2662 33.2071 26.25 33.125 26.25C33.0429 26.25 32.9617 26.2662 32.8858 26.2976C32.81 26.329 32.7411 26.375 32.6831 26.4331L30 29.1161L27.317 26.4331C27.1998 26.3159 27.0408 26.25 26.875 26.25C26.7093 26.25 26.5503 26.3159 26.4331 26.4331C26.3158 26.5503 26.25 26.7093 26.25 26.875C26.25 27.0408 26.3158 27.1998 26.4331 27.317L29.1161 30L26.4331 32.6831C26.3158 32.8003 26.25 32.9593 26.25 33.125C26.25 33.2908 26.3158 33.4498 26.4331 33.567C26.5503 33.6842 26.7093 33.75 26.875 33.75C27.0408 33.75 27.1998 33.6842 27.317 33.567L30 30.8839L32.6831 33.567C32.8003 33.6842 32.9593 33.75 33.125 33.75C33.2908 33.75 33.4498 33.6842 33.567 33.567C33.6842 33.4498 33.75 33.2908 33.75 33.125C33.75 32.9593 33.6842 32.8003 33.567 32.6831L30.8839 30L33.567 27.317C33.625 27.2589 33.671 27.19 33.7025 27.1142C33.7339 27.0384 33.75 26.9571 33.75 26.875C33.75 26.7929 33.7339 26.7117 33.7025 26.6358C33.671 26.56 33.625 26.4911 33.567 26.4331Z" fill="#5199D3"/>
</svg>
