<svg width="41" height="40" viewBox="0 0 41 40" fill="none" xmlns="http://www.w3.org/2000/svg">
<path d="M40.4908 39.1814C40.4908 35.6867 37.9922 32.7658 34.6901 32.115C35.7167 31.4113 36.5124 30.3942 36.9392 29.2023C38.2233 29.1731 39.2591 28.119 39.2591 26.8264C39.2591 25.6528 38.4051 24.6758 37.2868 24.484V23.7327C37.7417 23.2607 38.6783 21.9923 38.4801 19.6939C38.3955 18.7154 38.0266 17.947 37.3834 17.4101C36.5787 16.7383 35.5679 16.6387 35.0842 16.6335C34.4779 16.0966 32.5533 14.6634 29.9812 15.4044C28.8502 15.7302 28.0526 16.2148 27.3489 16.6424C26.2772 17.2936 25.4308 17.808 23.7011 17.5881C23.3468 17.5338 23.0085 17.853 23.0418 18.2102C23.089 18.9063 23.4862 20.0636 24.5875 20.5544C24.2517 20.7224 23.7847 20.8526 23.1554 20.8338C22.6723 20.8028 22.3668 21.4125 22.6755 21.7824C22.7301 21.8521 23.9508 23.3973 25.3915 23.9756V24.4839C24.2731 24.6758 23.4191 25.6528 23.4191 26.8263C23.4191 28.1189 24.455 29.1731 25.739 29.2022C26.1656 30.3935 26.9608 31.4102 27.9865 32.1138C26.9766 32.3116 26.0219 32.7253 25.1739 33.3383C24.9112 33.5281 24.8522 33.8952 25.0419 34.1579C25.2318 34.4207 25.5988 34.4797 25.8612 34.2899C26.7751 33.6292 27.8377 33.246 28.9562 33.1686L29.713 35.1203L29.0379 38.8258H23.3714C23.4346 37.7358 23.7884 36.6924 24.4042 35.7883C24.5867 35.5204 24.5176 35.1552 24.2497 34.9726C23.9818 34.79 23.6168 34.8592 23.4344 35.1271C22.6186 36.3247 22.1875 37.7266 22.1875 39.1813C22.1312 39.5719 22.3321 40.0052 22.7743 39.9999H39.9038C40.3463 40.0053 40.5469 39.572 40.4908 39.1814ZM38.0855 26.8263C38.0855 27.368 37.7263 27.8269 37.2342 27.9772C37.2677 27.7217 37.2869 27.4618 37.2869 27.1974V25.694C37.7515 25.8602 38.0855 26.3044 38.0855 26.8263ZM24.5929 26.8263C24.5929 26.3044 24.9269 25.8602 25.3915 25.6941V27.1974C25.3915 27.4619 25.4107 27.7218 25.4441 27.9772C24.9521 27.8269 24.5929 27.3681 24.5929 26.8263ZM26.0197 22.9531C25.4196 22.774 24.8194 22.3065 24.3668 21.8807C25.7944 21.5198 26.3365 20.5233 26.3641 20.4707C26.4613 20.286 26.4531 20.0636 26.3426 19.8866C26.2322 19.7095 26.0323 19.6036 25.8276 19.6106C25.2038 19.6284 24.7638 19.4107 24.4835 18.9433C24.4578 18.9004 24.4345 18.8572 24.4133 18.8142C26.0095 18.8293 26.9592 18.2529 27.9582 17.6458C28.6304 17.2373 29.3255 16.8149 30.3059 16.5326C32.6772 15.8496 34.3639 17.5599 34.433 17.6315C34.5558 17.7605 34.7334 17.8265 34.9104 17.8114C35.1372 17.7922 37.1287 17.6845 37.3108 19.7949C37.3933 20.7516 37.2548 21.5843 36.8989 22.2697C36.8055 22.4495 36.7087 22.5951 36.6222 22.7083C35.9862 22.1703 35.3737 21.2378 35.1618 20.8672C34.9527 20.4727 34.3344 20.4795 34.1352 20.88C33.5937 21.8872 32.6312 22.3413 31.9913 22.5397C31.8539 21.6924 31.3252 21.0506 31.2958 21.0156C31.0786 20.7432 30.6308 20.7374 30.4066 21.0035C28.8892 22.7186 26.9724 22.9435 26.3327 22.9692C26.2271 22.9706 26.1222 22.9831 26.0197 22.9531ZM26.5651 27.1974V24.1299C27.3994 24.0649 29.1651 23.755 30.7255 22.3474C30.8229 22.5931 30.885 22.8789 30.8281 23.1475C30.7384 23.5205 31.0757 23.8995 31.456 23.8538C31.5456 23.8455 33.3883 23.658 34.6358 22.2117C34.6896 22.2877 34.7469 22.3669 34.8076 22.4478C35.2535 23.043 35.6913 23.496 36.1131 23.7993V27.1974C36.1131 29.8341 33.9715 31.9792 31.3391 31.9792C28.7067 31.9792 26.5651 29.8342 26.5651 27.1974ZM31.9565 34.4756H30.722L30.2094 33.1534H32.4692L31.9565 34.4756ZM30.8098 35.6496H31.8687L32.4472 38.8259H30.2312L30.8098 35.6496ZM33.6403 38.8259L32.9652 35.1203L33.7215 33.1699C36.7263 33.3799 39.1308 35.8072 39.3069 38.8259H33.6403Z" fill="#5199D3"/>
<path d="M28.785 24.8948C28.4609 24.8948 28.1982 25.1576 28.1982 25.4819V26.6754C28.1982 26.9996 28.4609 27.2624 28.785 27.2624C29.1092 27.2624 29.3718 26.9996 29.3718 26.6754V25.4819C29.3718 25.1576 29.1092 24.8948 28.785 24.8948Z" fill="#5199D3"/>
<path d="M33.9369 27.2625C34.261 27.2625 34.5237 26.9997 34.5237 26.6754V25.4819C34.5237 25.1577 34.261 24.8949 33.9369 24.8949C33.6128 24.8949 33.3501 25.1577 33.3501 25.4819V26.6754C33.3501 26.9996 33.6128 27.2625 33.9369 27.2625Z" fill="#5199D3"/>
<path d="M33.0666 29.0136C33.1039 28.9365 33.1248 28.85 33.1248 28.7585C33.1248 28.4343 32.862 28.1715 32.538 28.1715C32.2881 28.1715 32.0749 28.3278 31.9902 28.5478C31.9668 28.5937 31.8262 28.8224 31.3613 28.8224C30.8963 28.8224 30.7557 28.5937 30.7323 28.5478C30.6476 28.3278 30.4343 28.1715 30.1845 28.1715C29.8604 28.1715 29.5977 28.4343 29.5977 28.7585C29.5977 28.8499 29.6185 28.9364 29.6558 29.0136C29.8059 29.3786 30.3336 29.9964 31.3612 29.9964C32.3887 29.9964 32.9166 29.3786 33.0666 29.0136Z" fill="#5199D3"/>
<path d="M13.0118 16.9695C14.0385 16.2657 14.8342 15.2486 15.261 14.0567C16.5451 14.0277 17.581 12.9734 17.581 11.6809C17.581 11.2681 17.4752 10.8796 17.2896 10.541C17.9473 8.84297 18.1833 7.12321 17.9711 5.54907C17.7624 4.00032 17.1168 2.63805 16.1533 1.71329C14.4564 0.0844569 12.758 0.393598 11.8396 0.916723C11.009 0.43641 8.8273 -0.546949 6.08894 0.390785C4.48222 0.940941 3.09519 2.29868 2.2837 4.11586C1.66159 5.50899 1.09769 7.80032 1.88644 10.8615C1.79245 11.117 1.74105 11.393 1.74105 11.6808C1.74105 12.9734 2.77691 14.0275 4.06097 14.0566C4.48761 15.2481 5.28285 16.2648 6.30878 16.9685C5.21956 17.1811 4.19777 17.6434 3.30183 18.338C3.04574 18.5366 2.99894 18.9053 3.19753 19.1616C3.39613 19.418 3.76472 19.4645 4.02081 19.266C4.97042 18.5297 6.08917 18.105 7.27816 18.0234L8.03488 19.9748L7.35972 23.6803H1.69331C1.75191 22.6781 2.05777 21.7087 2.58683 20.8567C2.75784 20.5813 2.67331 20.2194 2.398 20.0483C2.12269 19.8773 1.76089 19.9616 1.5898 20.2372C0.882844 21.3756 0.50925 22.6891 0.50925 24.0358C0.453 24.4264 0.65386 24.8597 1.09605 24.8544H18.2256C18.6679 24.8596 18.8686 24.4264 18.8124 24.0358C18.8126 20.5411 16.3139 17.6202 13.0118 16.9695ZM15.556 12.8317C15.6409 12.3182 15.5998 11.0841 15.6086 10.5485C16.0733 10.7147 16.4074 11.1588 16.4074 11.6809C16.4073 12.2225 16.0482 12.6814 15.556 12.8317ZM2.91472 11.6808C2.91472 11.1588 3.24878 10.7147 3.71339 10.5485C3.72238 11.0911 3.68097 12.3116 3.76605 12.8317C3.27386 12.6813 2.91472 12.2225 2.91472 11.6808ZM4.11535 9.3036C3.64269 9.3036 3.20222 9.44321 2.83175 9.6825C2.11949 5.56047 4.01136 2.34297 6.46902 1.50149C9.30964 0.52891 11.4141 2.02696 11.5005 2.08993C11.7175 2.25055 12.0123 2.24547 12.2201 2.07321C12.366 1.95649 13.6929 0.978832 15.3407 2.56047C17.123 4.27118 17.1549 7.20141 16.3735 9.61172C16.0286 9.41594 15.6306 9.3036 15.2067 9.3036C15.2022 9.3036 15.1978 9.30391 15.1933 9.30391C12.9986 7.74172 11.517 4.90641 11.5021 4.87758C11.323 4.50313 10.7636 4.45016 10.5181 4.78493C10.4947 4.81485 8.15628 7.7643 4.20636 9.30594C4.17597 9.30477 4.14558 9.3036 4.11535 9.3036ZM4.88699 12.0519V10.2993C7.8766 9.07258 9.94378 7.14907 10.8796 6.1518C11.495 7.16 12.7501 8.97883 14.4349 10.2056V12.0519C14.4349 14.6886 12.2933 16.8338 9.66089 16.8338C7.02847 16.8338 4.88699 14.6886 4.88699 12.0519ZM8.55292 23.6803L9.1316 20.5041H10.1904L10.7691 23.6803H8.55292ZM10.2782 19.33H9.04371L8.53097 18.0078H10.7908L10.2782 19.33ZM11.9621 23.6803L11.2869 19.9748L12.0432 18.0243C15.048 18.2343 17.4525 20.6616 17.6286 23.6803H11.9621Z" fill="#5199D3"/>
<path d="M7.10682 9.74933C6.78268 9.74933 6.52002 10.0121 6.52002 10.3364V11.5299C6.52002 11.8541 6.78275 12.1169 7.10682 12.1169C7.43096 12.1169 7.69361 11.8541 7.69361 11.5299V10.3364C7.69361 10.0121 7.43088 9.74933 7.10682 9.74933Z" fill="#5199D3"/>
<path d="M12.2587 12.117C12.5828 12.117 12.8455 11.8542 12.8455 11.5299V10.3364C12.8455 10.0122 12.5827 9.74939 12.2587 9.74939C11.9345 9.74939 11.6719 10.0122 11.6719 10.3364V11.5299C11.6719 11.8541 11.9345 12.117 12.2587 12.117Z" fill="#5199D3"/>
<path d="M11.3883 13.8681C11.4256 13.791 11.4465 13.7045 11.4465 13.613C11.4465 13.2888 11.1837 13.026 10.8597 13.026C10.6098 13.026 10.3966 13.1823 10.3119 13.4023C10.2885 13.4482 10.1479 13.6769 9.68295 13.6769C9.21803 13.6769 9.0774 13.4482 9.05397 13.4023C8.96928 13.1823 8.756 13.026 8.50623 13.026C8.18217 13.026 7.91943 13.2888 7.91943 13.613C7.91943 13.7044 7.94029 13.7909 7.97756 13.8681C8.12764 14.233 8.65537 14.8509 9.68303 14.8509C10.7107 14.8509 11.2383 14.233 11.3883 13.8681Z" fill="#5199D3"/>
<path d="M16.8275 34.8411C14.6886 34.8411 12.7575 33.564 11.8883 31.6544H13.4026C13.9003 31.671 14.1833 31.0194 13.8317 30.6668L9.98389 26.5423C9.76358 26.2958 9.34616 26.2958 9.12585 26.5423L5.27811 30.6668C4.92655 31.0196 5.20952 31.671 5.70717 31.6544H7.47319C8.49897 35.9617 12.3573 39.0388 16.8276 39.0388C17.1517 39.0388 17.4144 38.776 17.4144 38.4518V35.4282C17.4143 35.1039 17.1515 34.8411 16.8275 34.8411ZM16.2406 37.8445C12.4265 37.581 9.23092 34.7674 8.52538 30.9603C8.47389 30.6821 8.23131 30.4803 7.94842 30.4803H7.05733L9.55483 27.8032L12.0523 30.4803H11.0486C10.6705 30.4703 10.3708 30.8679 10.4844 31.2289C11.2362 33.8573 13.5557 35.7464 16.2407 35.9888V37.8445H16.2406Z" fill="#5199D3"/>
<path d="M24.1085 5.21289C26.2474 5.21289 28.1785 6.49 29.0476 8.39961H27.5333C27.0356 8.38305 26.7527 9.03461 27.1042 9.38719L30.9521 13.5117C31.1724 13.7582 31.5898 13.7582 31.8101 13.5117L35.6578 9.38719C36.0094 9.03446 35.7264 8.38305 35.2288 8.39961H33.4628C33.0291 6.57578 32.0814 4.93719 30.7034 3.63633C30.4677 3.41383 30.0963 3.42461 29.8739 3.66047C29.6514 3.89625 29.6622 4.26782 29.898 4.49032C31.2136 5.73219 32.0824 7.32399 32.4104 9.09367C32.4619 9.37188 32.7045 9.57367 32.9874 9.57367H33.8785L31.381 12.2508L28.8835 9.57367H29.8873C30.2654 9.58367 30.5651 9.18602 30.4515 8.82516C29.6997 6.19672 27.3802 4.30766 24.6952 4.06524L24.6953 2.20977C25.8944 2.29344 27.0678 2.63251 28.1202 3.2029C28.4053 3.35719 28.7613 3.25133 28.9156 2.96633C29.07 2.68125 28.9642 2.32501 28.6792 2.17055C27.2846 1.41477 25.704 1.01524 24.1084 1.01524C23.7931 1.00899 23.5153 1.28696 23.5216 1.60227L23.5217 4.62586C23.5217 4.95008 23.7845 5.21289 24.1085 5.21289Z" fill="#5199D3"/>
</svg>
