<svg width="41" height="41" viewBox="0 0 41 41" fill="none" xmlns="http://www.w3.org/2000/svg">
<rect x="0.5" width="40.0714" height="40.0714" rx="8" fill="#F5FFFF"/>
<path d="M20.605 17.7346C19.2997 17.7346 18.2345 18.7998 18.2345 20.1051C18.2345 21.4103 19.2997 22.4756 20.605 22.4756C21.9103 22.4756 22.9755 21.4103 22.9755 20.1051C22.9755 18.7998 21.9103 17.7346 20.605 17.7346ZM27.7147 20.1051C27.7147 19.1234 27.7236 18.1507 27.6685 17.1708C27.6134 16.0327 27.3537 15.0226 26.5215 14.1904C25.6874 13.3563 24.6791 13.0985 23.541 13.0433C22.5594 12.9882 21.5866 12.9971 20.6068 12.9971C19.6251 12.9971 18.6524 12.9882 17.6725 13.0433C16.5344 13.0985 15.5243 13.3581 14.6921 14.1904C13.858 15.0244 13.6002 16.0327 13.5451 17.1708C13.4899 18.1525 13.4988 19.1252 13.4988 20.1051C13.4988 21.0849 13.4899 22.0594 13.5451 23.0393C13.6002 24.1774 13.8598 25.1875 14.6921 26.0197C15.5261 26.8538 16.5344 27.1116 17.6725 27.1668C18.6542 27.2219 19.6269 27.213 20.6068 27.213C21.5884 27.213 22.5611 27.2219 23.541 27.1668C24.6791 27.1116 25.6892 26.852 26.5215 26.0197C27.3555 25.1857 27.6134 24.1774 27.6685 23.0393C27.7254 22.0594 27.7147 21.0867 27.7147 20.1051ZM20.605 23.7524C18.5866 23.7524 16.9577 22.1234 16.9577 20.1051C16.9577 18.0867 18.5866 16.4577 20.605 16.4577C22.6234 16.4577 24.2523 18.0867 24.2523 20.1051C24.2523 22.1234 22.6234 23.7524 20.605 23.7524ZM24.4017 17.1602C23.9305 17.1602 23.5499 16.7796 23.5499 16.3083C23.5499 15.8371 23.9305 15.4565 24.4017 15.4565C24.873 15.4565 25.2535 15.8371 25.2535 16.3083C25.2537 16.4202 25.2317 16.5311 25.189 16.6345C25.1462 16.7379 25.0835 16.8319 25.0043 16.911C24.9252 16.9901 24.8313 17.0528 24.7279 17.0956C24.6244 17.1384 24.5136 17.1603 24.4017 17.1602Z" fill="#294B53"/>
</svg>
