<svg width="40" height="40" viewBox="0 0 40 40" fill="none" xmlns="http://www.w3.org/2000/svg">
<path d="M6.64357 35.5414C6.49834 35.396 6.29677 35.3125 6.09131 35.3125C5.88584 35.3125 5.68428 35.396 5.53896 35.5414C5.39365 35.6868 5.31006 35.8883 5.31006 36.0937C5.31006 36.2992 5.39357 36.5008 5.53896 36.646C5.68428 36.7913 5.88584 36.875 6.09131 36.875C6.29677 36.875 6.49834 36.7914 6.64357 36.646C6.78888 36.5008 6.87255 36.2992 6.87255 36.0937C6.87255 35.8883 6.78896 35.6867 6.64357 35.5414Z" fill="#5199D3"/>
<path d="M36.6783 14.2919C36.533 14.1465 36.3322 14.063 36.126 14.063C35.9205 14.063 35.7189 14.1465 35.5736 14.2919C35.4284 14.4372 35.3447 14.6388 35.3447 14.8442C35.3447 15.0497 35.4283 15.2513 35.5736 15.3965C35.7189 15.5418 35.9205 15.6255 36.126 15.6255C36.3322 15.6255 36.533 15.5419 36.6783 15.3965C36.8243 15.2513 36.9079 15.0497 36.9079 14.8442C36.9079 14.6388 36.8243 14.4372 36.6783 14.2919Z" fill="#5199D3"/>
<path d="M39.7701 0.228828C39.6235 0.0823435 39.4247 0 39.2175 0L19.9993 0.00101562C19.5679 0.00101562 19.2181 0.350859 19.2181 0.782265V3.0164L11.8127 5.0007C11.3959 5.1124 11.1486 5.54075 11.2603 5.9575L15.0983 20.281L11.7781 23.6013C11.3555 22.9842 10.646 22.5784 9.8434 22.5784H2.34366C1.05132 22.5784 0 23.6299 0 24.9221V37.6562C0 38.9485 1.05132 39.9999 2.34366 39.9999H9.8435C10.9414 39.9999 11.865 39.2408 12.1181 38.2202L13.047 39.0303C13.7641 39.6557 14.6828 40 15.6343 40H39.2177C39.6491 40 39.9989 39.6502 39.9989 39.2188V0.78125C39.9988 0.57406 39.9165 0.375312 39.7701 0.228828ZM10.6246 37.6562C10.6246 38.0869 10.2741 38.4375 9.84335 38.4375H2.34359C1.91281 38.4375 1.56234 38.0871 1.56234 37.6562V24.9222C1.56234 24.4914 1.91281 24.1409 2.34359 24.1409H5.31225V33.1405C5.31225 33.5719 5.6621 33.9218 6.0935 33.9218C6.5249 33.9218 6.87475 33.5719 6.87475 33.1405V24.1409H9.8434C10.2742 24.1409 10.6247 24.4914 10.6247 24.9222V37.6562H10.6246ZM12.9717 6.3077L19.2181 4.63398V7.5289L18.6945 7.6692C18.4942 7.7229 18.3237 7.85375 18.2201 8.0332C18.1166 8.21265 18.0884 8.42585 18.142 8.626C18.4423 9.7464 17.775 10.9021 16.6546 11.2023C16.4543 11.2561 16.2834 11.3872 16.1799 11.567C16.0764 11.7468 16.0485 11.9604 16.1026 12.1607L19.1479 23.437H17.5799L16.7719 20.2758C16.7462 20.1752 16.7011 20.0825 16.6409 20.0019L12.9717 6.3077ZM19.2181 11.1116V17.7038L17.7931 12.4277C18.3884 12.1203 18.8755 11.6605 19.2181 11.1116ZM30.4418 38.4375H15.6342C15.0604 38.4375 14.5062 38.2298 14.0737 37.8526L12.1871 36.2073V25.4021L15.5978 21.9913L16.2164 24.4116C16.3049 24.7575 16.6164 24.9993 16.9734 24.9993L32.333 25.0002C32.9361 25.0002 33.4268 25.4909 33.4268 26.094C33.4268 26.6971 32.9361 27.1877 32.333 27.1877H24.4627C24.0313 27.1877 23.6814 27.5376 23.6814 27.969C23.6814 28.4004 24.0313 28.7502 24.4627 28.7502H34.7783C35.3814 28.7502 35.8721 29.2409 35.8721 29.844C35.8721 30.4471 35.3814 30.9377 34.7783 30.9377H24.4627C24.0313 30.9377 23.6814 31.2876 23.6814 31.719C23.6814 32.1504 24.0313 32.5003 24.4627 32.5003H33.1067C33.7098 32.5003 34.2004 32.9909 34.2004 33.594C34.2004 34.1971 33.7098 34.6878 33.1067 34.6878H24.4627C24.0313 34.6878 23.6814 35.0376 23.6814 35.469C23.6814 35.9004 24.0313 36.2503 24.4627 36.2503H30.4418C31.0449 36.2503 31.5355 36.7409 31.5355 37.344C31.5355 37.9468 31.0448 38.4375 30.4418 38.4375ZM38.4364 38.4375H38.4364H32.8614C33.0129 38.1036 33.098 37.7335 33.098 37.3437C33.098 36.9538 33.0129 36.5838 32.8614 36.25H33.1067C34.5713 36.25 35.7628 35.0583 35.7628 33.5938C35.7628 33.1666 35.6609 32.7629 35.4809 32.4049C36.6055 32.0961 37.4344 31.0652 37.4344 29.8438C37.4344 29.2513 37.2393 28.7036 36.9101 28.2614V18.3599C36.9101 17.9285 36.5602 17.5786 36.1288 17.5786C35.6974 17.5786 35.3476 17.9285 35.3476 18.3599V27.2498C35.164 27.2097 34.9736 27.1877 34.7781 27.1877H34.7525C34.904 26.854 34.9891 26.4839 34.9891 26.094C34.9891 24.6294 33.7975 23.4379 32.3329 23.4379H31.077C32.4105 22.866 33.3471 21.5405 33.3471 20C33.3471 17.9384 31.6699 16.261 29.6083 16.261C27.5467 16.261 25.8695 17.9384 25.8695 20C25.8695 21.5405 26.8061 22.866 28.1395 23.4379H23.869V8.58305C25.2647 8.2789 26.3659 7.1777 26.67 5.782H32.5466C32.8507 7.1777 33.9519 8.2789 35.3475 8.58305V11.0119C35.3475 11.4433 35.6973 11.7932 36.1287 11.7932C36.5602 11.7932 36.91 11.4433 36.91 11.0119V7.88555C36.91 7.45415 36.5602 7.1043 36.1287 7.1043C34.9688 7.1043 34.0253 6.1606 34.0253 5.00075C34.0253 4.56937 33.6755 4.21952 33.2441 4.21952H25.9725C25.5411 4.21952 25.1913 4.56937 25.1913 5.00075C25.1913 6.1607 24.2477 7.1043 23.0879 7.1043C22.6565 7.1043 22.3066 7.45415 22.3066 7.88555V23.4377H20.7806V1.56335L38.4364 1.56249V38.4375ZM29.6084 22.1763C28.4084 22.1763 27.4321 21.2001 27.4321 20C27.4321 18.8 28.4084 17.8237 29.6084 17.8237C30.8085 17.8237 31.7848 18.7999 31.7848 20C31.7848 21.2 30.8085 22.1763 29.6084 22.1763Z" fill="#5199D3"/>
</svg>
