<svg width="186" height="58" viewBox="0 0 186 58" fill="none" xmlns="http://www.w3.org/2000/svg">
<rect width="186" height="58" rx="8" fill="#1F4149"/>
<path d="M19 16.7181V41.2806C19.0002 41.3339 19.0161 41.3859 19.0457 41.4302C19.0753 41.4745 19.1174 41.5091 19.1666 41.5296C19.2158 41.55 19.2699 41.5556 19.3222 41.5454C19.3745 41.5352 19.4227 41.5099 19.4606 41.4724L32.25 28.9999L19.4606 16.5262C19.4227 16.4888 19.3745 16.4634 19.3222 16.4532C19.2699 16.4431 19.2158 16.4486 19.1666 16.4691C19.1174 16.4896 19.0753 16.5241 19.0457 16.5684C19.0161 16.6127 19.0002 16.6648 19 16.7181V16.7181ZM37.6125 23.8749L21.5762 15.0399L21.5662 15.0343C21.29 14.8843 21.0275 15.2581 21.2537 15.4756L33.8244 27.4956L37.6125 23.8749ZM21.255 42.5243C21.0275 42.7418 21.29 43.1156 21.5675 42.9656L21.5775 42.9599L37.6125 34.1249L33.8244 30.5031L21.255 42.5243ZM44.0862 27.4374L39.6081 24.9712L35.3975 28.9999L39.6081 33.0268L44.0862 30.5624C45.3044 29.8893 45.3044 28.1106 44.0862 27.4374Z" fill="#F5FFFF"/>
<path d="M61.33 21.143C60.68 21.143 60.0777 21.0217 59.523 20.779C58.9683 20.5363 58.4787 20.2027 58.054 19.778C57.638 19.3447 57.313 18.8463 57.079 18.283C56.845 17.711 56.728 17.1 56.728 16.45C56.728 15.8 56.845 15.1933 57.079 14.63C57.313 14.058 57.638 13.5597 58.054 13.135C58.4787 12.7017 58.9683 12.3637 59.523 12.121C60.0777 11.8783 60.68 11.757 61.33 11.757C62.0233 11.757 62.6777 11.8827 63.293 12.134C63.917 12.3853 64.4457 12.758 64.879 13.252L64.203 13.928C63.865 13.5207 63.4403 13.2087 62.929 12.992C62.4177 12.7753 61.8847 12.667 61.33 12.667C60.8187 12.667 60.3463 12.7667 59.913 12.966C59.4797 13.1567 59.0983 13.4253 58.769 13.772C58.4483 14.11 58.197 14.5087 58.015 14.968C57.833 15.4273 57.742 15.9213 57.742 16.45C57.742 16.9787 57.833 17.4727 58.015 17.932C58.197 18.3913 58.4483 18.7943 58.769 19.141C59.0983 19.479 59.4797 19.7477 59.913 19.947C60.3463 20.1377 60.8187 20.233 61.33 20.233C61.9367 20.233 62.4783 20.0987 62.955 19.83C63.4403 19.5613 63.8303 19.193 64.125 18.725C64.4283 18.2483 64.606 17.7153 64.658 17.126H61.59V16.242H65.672V16.645C65.672 17.2777 65.5637 17.867 65.347 18.413C65.1303 18.9503 64.8227 19.427 64.424 19.843C64.034 20.2503 63.5747 20.571 63.046 20.805C62.5173 21.0303 61.9453 21.143 61.33 21.143ZM67.2818 21V11.9H73.4958V12.784H68.2828V15.969H71.8968V16.84H68.2828V20.116H73.5478V21H67.2818ZM77.4236 21V12.784H74.2776V11.9H81.5706V12.784H78.4246V21H77.4236ZM85.5952 21V11.9H86.5962V21H85.5952ZM90.9893 21V12.784H87.8433V11.9H95.1363V12.784H91.9903V21H90.9893ZM103.282 21.143C102.649 21.143 102.06 21.026 101.514 20.792C100.968 20.5493 100.487 20.2157 100.071 19.791C99.6636 19.3577 99.3429 18.8593 99.1089 18.296C98.8749 17.724 98.7579 17.1087 98.7579 16.45C98.7579 15.7913 98.8749 15.1803 99.1089 14.617C99.3429 14.045 99.6636 13.5467 100.071 13.122C100.487 12.6887 100.968 12.355 101.514 12.121C102.06 11.8783 102.649 11.757 103.282 11.757C103.915 11.757 104.504 11.8783 105.05 12.121C105.596 12.355 106.073 12.6887 106.48 13.122C106.896 13.5467 107.221 14.045 107.455 14.617C107.689 15.1803 107.806 15.7913 107.806 16.45C107.806 17.1087 107.689 17.724 107.455 18.296C107.221 18.8593 106.896 19.3577 106.48 19.791C106.073 20.2157 105.596 20.5493 105.05 20.792C104.504 21.026 103.915 21.143 103.282 21.143ZM103.282 20.233C103.776 20.233 104.235 20.1377 104.66 19.947C105.085 19.7563 105.457 19.4877 105.778 19.141C106.099 18.7943 106.346 18.3913 106.519 17.932C106.701 17.4727 106.792 16.9787 106.792 16.45C106.792 15.9127 106.701 15.4187 106.519 14.968C106.346 14.5087 106.099 14.1057 105.778 13.759C105.457 13.4123 105.085 13.1437 104.66 12.953C104.235 12.7623 103.776 12.667 103.282 12.667C102.788 12.667 102.329 12.7623 101.904 12.953C101.479 13.1437 101.107 13.4123 100.786 13.759C100.465 14.1057 100.214 14.5087 100.032 14.968C99.8586 15.4187 99.7719 15.9083 99.7719 16.437C99.7719 16.9743 99.8586 17.4727 100.032 17.932C100.214 18.3913 100.465 18.7943 100.786 19.141C101.107 19.4877 101.479 19.7563 101.904 19.947C102.329 20.1377 102.788 20.233 103.282 20.233ZM109.438 21V11.9H110.478L115.808 19.44L115.782 11.9H116.731V21H115.821L110.361 13.291L110.387 21H109.438ZM64.22 45.22C63.2067 45.22 62.2667 45.0333 61.4 44.66C60.5333 44.2867 59.7667 43.7733 59.1 43.12C58.4467 42.4533 57.9333 41.6867 57.56 40.82C57.2 39.94 57.02 39 57.02 38C57.02 37 57.2 36.0667 57.56 35.2C57.9333 34.32 58.4467 33.5533 59.1 32.9C59.7533 32.2333 60.5133 31.7133 61.38 31.34C62.2467 30.9667 63.1867 30.78 64.2 30.78C65.32 30.78 66.3733 30.9933 67.36 31.42C68.36 31.8467 69.1933 32.4667 69.86 33.28L68.18 34.78C67.7 34.18 67.1133 33.7267 66.42 33.42C65.7267 33.1 64.9867 32.94 64.2 32.94C63.52 32.94 62.8933 33.0667 62.32 33.32C61.7467 33.5733 61.2467 33.9333 60.82 34.4C60.4067 34.8533 60.08 35.3867 59.84 36C59.6 36.6133 59.48 37.28 59.48 38C59.48 38.72 59.6 39.3933 59.84 40.02C60.08 40.6333 60.4133 41.1667 60.84 41.62C61.28 42.0733 61.7867 42.4333 62.36 42.7C62.9333 42.9533 63.5667 43.08 64.26 43.08C65.0067 43.08 65.68 42.9267 66.28 42.62C66.88 42.3 67.3733 41.86 67.76 41.3C68.16 40.74 68.4067 40.1133 68.5 39.42H64.34V37.36H71.04V38.14C71.04 39.1533 70.8667 40.0867 70.52 40.94C70.1867 41.7933 69.7133 42.5467 69.1 43.2C68.4867 43.84 67.7667 44.34 66.94 44.7C66.1133 45.0467 65.2067 45.22 64.22 45.22ZM78.0152 45.18C77.0685 45.18 76.2085 44.9533 75.4352 44.5C74.6752 44.0467 74.0752 43.4333 73.6352 42.66C73.1952 41.8733 72.9752 40.9867 72.9752 40C72.9752 39.0133 73.1952 38.1333 73.6352 37.36C74.0752 36.5733 74.6752 35.9533 75.4352 35.5C76.1952 35.0467 77.0552 34.82 78.0152 34.82C78.9752 34.82 79.8285 35.0467 80.5752 35.5C81.3352 35.9533 81.9352 36.5733 82.3752 37.36C82.8152 38.1333 83.0352 39.0133 83.0352 40C83.0352 40.9867 82.8152 41.8733 82.3752 42.66C81.9352 43.4333 81.3352 44.0467 80.5752 44.5C79.8285 44.9533 78.9752 45.18 78.0152 45.18ZM78.0152 43.26C78.5618 43.26 79.0418 43.12 79.4552 42.84C79.8818 42.56 80.2152 42.1733 80.4552 41.68C80.6952 41.1733 80.8152 40.6133 80.8152 40C80.8152 39.3733 80.6952 38.82 80.4552 38.34C80.2152 37.8467 79.8818 37.46 79.4552 37.18C79.0418 36.8867 78.5618 36.74 78.0152 36.74C77.4685 36.74 76.9818 36.8867 76.5552 37.18C76.1285 37.46 75.7952 37.8467 75.5552 38.34C75.3152 38.82 75.1952 39.3733 75.1952 40C75.1952 40.6267 75.3152 41.1867 75.5552 41.68C75.7952 42.1733 76.1285 42.56 76.5552 42.84C76.9818 43.12 77.4685 43.26 78.0152 43.26ZM89.9488 45.18C89.0021 45.18 88.1421 44.9533 87.3688 44.5C86.6088 44.0467 86.0088 43.4333 85.5688 42.66C85.1288 41.8733 84.9088 40.9867 84.9088 40C84.9088 39.0133 85.1288 38.1333 85.5688 37.36C86.0088 36.5733 86.6088 35.9533 87.3688 35.5C88.1288 35.0467 88.9888 34.82 89.9488 34.82C90.9088 34.82 91.7621 35.0467 92.5088 35.5C93.2688 35.9533 93.8688 36.5733 94.3088 37.36C94.7488 38.1333 94.9688 39.0133 94.9688 40C94.9688 40.9867 94.7488 41.8733 94.3088 42.66C93.8688 43.4333 93.2688 44.0467 92.5088 44.5C91.7621 44.9533 90.9088 45.18 89.9488 45.18ZM89.9488 43.26C90.4954 43.26 90.9754 43.12 91.3888 42.84C91.8154 42.56 92.1488 42.1733 92.3888 41.68C92.6288 41.1733 92.7488 40.6133 92.7488 40C92.7488 39.3733 92.6288 38.82 92.3888 38.34C92.1488 37.8467 91.8154 37.46 91.3888 37.18C90.9754 36.8867 90.4954 36.74 89.9488 36.74C89.4021 36.74 88.9154 36.8867 88.4888 37.18C88.0621 37.46 87.7288 37.8467 87.4888 38.34C87.2488 38.82 87.1288 39.3733 87.1288 40C87.1288 40.6267 87.2488 41.1867 87.4888 41.68C87.7288 42.1733 88.0621 42.56 88.4888 42.84C88.9154 43.12 89.4021 43.26 89.9488 43.26ZM101.982 49.38C101.276 49.38 100.576 49.2933 99.8823 49.12C99.189 48.9467 98.549 48.7067 97.9623 48.4L98.7423 46.74C99.3423 47.02 99.889 47.2267 100.382 47.36C100.889 47.5067 101.389 47.58 101.882 47.58C102.722 47.58 103.356 47.3933 103.782 47.02C104.222 46.6467 104.442 46.0933 104.442 45.36V43.66C104.082 44.1 103.636 44.4467 103.102 44.7C102.569 44.94 101.989 45.06 101.362 45.06C100.522 45.06 99.7623 44.8333 99.0823 44.38C98.4023 43.9133 97.8557 43.3 97.4423 42.54C97.0423 41.7667 96.8423 40.9067 96.8423 39.96C96.8423 39.0133 97.049 38.16 97.4623 37.4C97.8757 36.64 98.4357 36.0333 99.1423 35.58C99.8623 35.1267 100.656 34.9 101.522 34.9C102.109 34.9 102.656 35.0133 103.162 35.24C103.669 35.4667 104.102 35.8 104.462 36.24V34.98H106.702V45.36C106.702 46.6533 106.296 47.6467 105.482 48.34C104.669 49.0333 103.502 49.38 101.982 49.38ZM102.062 43.18C102.542 43.18 102.989 43.0867 103.402 42.9C103.816 42.7 104.162 42.4267 104.442 42.08V37.88C104.149 37.5333 103.796 37.2667 103.382 37.08C102.969 36.8933 102.529 36.8 102.062 36.8C101.489 36.8 100.976 36.94 100.522 37.22C100.082 37.4867 99.729 37.86 99.4623 38.34C99.1957 38.8067 99.0623 39.3533 99.0623 39.98C99.0623 40.58 99.1957 41.1267 99.4623 41.62C99.729 42.1 100.082 42.48 100.522 42.76C100.976 43.04 101.489 43.18 102.062 43.18ZM109.49 45V30.66L111.75 30.26V45H109.49ZM119.189 45.2C118.229 45.2 117.362 44.9733 116.589 44.52C115.816 44.0533 115.202 43.4333 114.749 42.66C114.296 41.8733 114.069 40.9867 114.069 40C114.069 39.0133 114.282 38.1333 114.709 37.36C115.136 36.5867 115.716 35.9733 116.449 35.52C117.196 35.0533 118.022 34.82 118.929 34.82C119.862 34.82 120.682 35.0467 121.389 35.5C122.109 35.9533 122.669 36.5667 123.069 37.34C123.482 38.1133 123.689 39 123.689 40V40.54H116.289C116.369 41.0867 116.542 41.5733 116.809 42C117.089 42.4133 117.442 42.74 117.869 42.98C118.309 43.22 118.782 43.34 119.289 43.34C119.756 43.34 120.196 43.26 120.609 43.1C121.036 42.9267 121.389 42.6933 121.669 42.4L123.149 43.74C122.536 44.2467 121.909 44.62 121.269 44.86C120.642 45.0867 119.949 45.2 119.189 45.2ZM116.309 39.14H121.549C121.469 38.66 121.302 38.2333 121.049 37.86C120.809 37.4867 120.502 37.1933 120.129 36.98C119.769 36.7667 119.369 36.66 118.929 36.66C118.489 36.66 118.082 36.7667 117.709 36.98C117.349 37.18 117.049 37.4667 116.809 37.84C116.569 38.2133 116.402 38.6467 116.309 39.14ZM130.766 45V31H137.026C137.973 31 138.793 31.1867 139.486 31.56C140.193 31.92 140.739 32.4267 141.126 33.08C141.513 33.7333 141.706 34.4933 141.706 35.36C141.706 36.1867 141.513 36.9267 141.126 37.58C140.739 38.2333 140.193 38.7467 139.486 39.12C138.793 39.48 137.973 39.66 137.026 39.66H133.166V45H130.766ZM133.166 37.7H136.646C137.499 37.7 138.153 37.4867 138.606 37.06C139.059 36.62 139.286 36.0467 139.286 35.34C139.286 34.6467 139.059 34.0867 138.606 33.66C138.153 33.2333 137.506 33.02 136.666 33.02H133.166V37.7ZM144.06 45V30.66L146.32 30.26V45H144.06ZM152.139 45.18C151.446 45.18 150.826 45.0533 150.279 44.8C149.746 44.5333 149.326 44.1733 149.019 43.72C148.726 43.2533 148.579 42.72 148.579 42.12C148.579 41.52 148.733 41 149.039 40.56C149.359 40.12 149.806 39.78 150.379 39.54C150.953 39.3 151.633 39.18 152.419 39.18C152.886 39.18 153.346 39.2333 153.799 39.34C154.253 39.4333 154.693 39.5933 155.119 39.82V38.7C155.119 38.0333 154.926 37.5333 154.539 37.2C154.166 36.8667 153.593 36.7 152.819 36.7C152.406 36.7 151.959 36.7667 151.479 36.9C151.013 37.02 150.486 37.2133 149.899 37.48L149.099 35.84C150.566 35.16 151.953 34.82 153.259 34.82C154.566 34.82 155.573 35.14 156.279 35.78C156.999 36.4067 157.359 37.3 157.359 38.46V45H155.119V43.96C154.693 44.3733 154.233 44.68 153.739 44.88C153.246 45.08 152.713 45.18 152.139 45.18ZM150.699 42.08C150.699 42.5467 150.886 42.9133 151.259 43.18C151.633 43.4467 152.133 43.58 152.759 43.58C153.213 43.58 153.633 43.5133 154.019 43.38C154.419 43.2333 154.786 43.02 155.119 42.74V41.12C154.773 40.96 154.413 40.84 154.039 40.76C153.666 40.68 153.259 40.64 152.819 40.64C152.166 40.64 151.646 40.7667 151.259 41.02C150.886 41.2733 150.699 41.6267 150.699 42.08ZM160.62 49.38C160.26 49.38 159.887 49.3333 159.5 49.24V47.28C159.633 47.3067 159.773 47.3267 159.92 47.34C160.08 47.3533 160.233 47.36 160.38 47.36C160.78 47.36 161.107 47.2667 161.36 47.08C161.613 46.8933 161.827 46.6067 162 46.22L162.46 45.1L158.68 34.98H161.18L163.74 42.4L166.52 34.98H169L164.2 46.74C163.947 47.38 163.66 47.8933 163.34 48.28C163.02 48.6667 162.64 48.9467 162.2 49.12C161.773 49.2933 161.247 49.38 160.62 49.38Z" fill="#F5FFFF"/>
</svg>
