<svg width="41" height="41" viewBox="0 0 41 41" fill="none" xmlns="http://www.w3.org/2000/svg">
<rect x="0.428589" width="40.0714" height="40.0714" rx="8" fill="#F5FFFF"/>
<path d="M28.8127 13.2049C28.0859 13.7175 27.2813 14.1096 26.4297 14.3661C25.9726 13.8405 25.3652 13.468 24.6894 13.299C24.0138 13.1299 23.3025 13.1724 22.6518 13.4208C22.0011 13.6691 21.4423 14.1114 21.0511 14.6876C20.6599 15.2639 20.4551 15.9464 20.4645 16.6428V17.4018C19.1308 17.4364 17.8092 17.1406 16.6175 16.5407C15.4258 15.9409 14.4009 15.0557 13.6341 13.9638C13.6341 13.9638 10.5984 20.7942 17.4288 23.8299C15.8658 24.8909 14.0038 25.4229 12.1163 25.3477C18.9466 29.1424 27.2949 25.3477 27.2949 16.6201C27.2942 16.4087 27.2738 16.1978 27.2341 15.9902C28.0086 15.2263 28.5553 14.2619 28.8127 13.2049Z" fill="#294B53"/>
</svg>
