<svg width="14" height="14" viewBox="0 0 14 14" fill="none" xmlns="http://www.w3.org/2000/svg">
<path d="M7.00686 1.16675C3.79502 1.16675 1.18039 3.77913 1.17922 6.99097C1.17864 8.01763 1.44754 9.01991 1.95738 9.90308L1.16669 12.8334L4.21893 12.1122C5.07002 12.5766 6.0281 12.8203 7.00344 12.8209H7.00572C10.217 12.8209 12.8305 10.2079 12.8322 6.99666C12.8334 5.43975 12.228 3.97593 11.1278 2.87459C10.0276 1.77384 8.56552 1.16733 7.00686 1.16675ZM7.00572 2.33341C8.25172 2.334 9.42267 2.8198 10.3029 3.69946C11.1832 4.5803 11.6667 5.75069 11.6655 6.99552C11.6644 9.56452 9.57474 11.6542 7.00458 11.6542C6.22699 11.6536 5.45676 11.4584 4.77834 11.088L4.38527 10.8738L3.95119 10.9763L2.80275 11.2475L3.08303 10.2061L3.20949 9.73901L2.96796 9.31974C2.56079 8.61508 2.3453 7.80938 2.34589 6.99097C2.34705 4.42313 4.4373 2.33341 7.00572 2.33341ZM4.94468 4.30217C4.84727 4.30217 4.68976 4.33862 4.55617 4.48446C4.42259 4.62971 4.04576 4.9815 4.04576 5.69784C4.04576 6.41417 4.56757 7.1066 4.64048 7.20402C4.71282 7.30085 5.64771 8.8173 7.12762 9.40064C8.35729 9.88539 8.60704 9.78972 8.87421 9.76522C9.14137 9.7413 9.73611 9.41373 9.85744 9.07365C9.97878 8.73357 9.97906 8.44102 9.94289 8.38094C9.90672 8.32028 9.80959 8.2841 9.66376 8.21118C9.51851 8.13827 8.80271 7.78678 8.66913 7.73836C8.53554 7.68995 8.43784 7.66545 8.341 7.81128C8.24417 7.95711 7.96588 8.28411 7.88072 8.38094C7.79555 8.47836 7.71096 8.49146 7.56512 8.41854C7.41929 8.34504 6.9504 8.1909 6.3939 7.69507C5.96107 7.30949 5.66901 6.83374 5.58384 6.68791C5.49926 6.54266 5.57587 6.46288 5.64878 6.39054C5.71412 6.32521 5.79348 6.2205 5.86639 6.13534C5.93873 6.05017 5.96381 5.98949 6.01223 5.89266C6.06064 5.79583 6.03586 5.71037 5.99969 5.63745C5.96353 5.56453 5.6803 4.84554 5.5508 4.55737C5.44172 4.31529 5.32651 4.30967 5.22268 4.30558C5.13809 4.30208 5.04152 4.30217 4.94468 4.30217Z" fill="black"/>
</svg>
