<svg width="41" height="41" viewBox="0 0 41 41" fill="none" xmlns="http://www.w3.org/2000/svg">
<rect x="0.571411" width="40.0714" height="40.0714" rx="8" fill="#F5FFFF"/>
<path fill-rule="evenodd" clip-rule="evenodd" d="M28.074 14.8443C28.3326 15.1108 28.5162 15.4408 28.6064 15.801C28.8471 17.1357 28.9639 18.4898 28.9555 19.846C28.9603 21.182 28.8434 22.5157 28.6064 23.8304C28.5162 24.1906 28.3326 24.5206 28.074 24.7871C27.8156 25.0536 27.4913 25.2473 27.1341 25.3482C25.8287 25.6974 20.6073 25.6974 20.6073 25.6974C20.6073 25.6974 15.3858 25.6974 14.0805 25.3482C13.7305 25.2525 13.4111 25.0681 13.1532 24.8128C12.8953 24.5576 12.7075 24.2401 12.6081 23.8911C12.3674 22.5564 12.2505 21.2023 12.259 19.846C12.2524 18.4999 12.3692 17.1561 12.6081 15.8313C12.6983 15.4711 12.8819 15.1411 13.1404 14.8746C13.3989 14.6081 13.7232 14.4145 14.0805 14.3135C15.3858 13.9644 20.6073 13.9644 20.6073 13.9644C20.6073 13.9644 25.8287 13.9644 27.1341 14.2831C27.4913 14.3842 27.8156 14.5778 28.074 14.8443ZM23.2635 19.846L18.8997 22.3276V17.3643L23.2635 19.846Z" fill="#294B53"/>
</svg>
